<svg xmlns="http://www.w3.org/2000/svg"
 width="96" height="156"
 viewBox="0 0 96 156"
 preserveAspectRatio="none">
  <rect x="0" y="0" width="96" height="156" fill="#000000"/>

  <g transform="scale(0.17266187,0.21081081) translate(-160,-46)">
    <path d="M 300 48.304 C 300 50.198, 286.974 51.069, 281.601 49.536 C 279.668 48.984, 278.914 49.053, 279.340 49.741 C 280.158 51.065, 276.746 50.835, 275.765 49.500 C 275.303 48.870, 275.025 48.938, 275.015 49.684 C 275.005 50.444, 274.017 50.665, 272.250 50.300 C 266.701 49.156, 259.295 49.914, 251 52.475 C 246.325 53.918, 241.938 55.152, 241.250 55.216 C 240.563 55.281, 240 55.735, 240 56.226 C 240 56.716, 239.559 56.846, 239.021 56.513 C 238.482 56.180, 237.020 56.473, 235.771 57.164 C 234.522 57.854, 232.892 58.295, 232.150 58.143 C 231.326 57.974, 231.088 58.333, 231.539 59.063 C 232.007 59.820, 231.772 60.091, 230.899 59.800 C 230.141 59.547, 228.696 60.389, 227.688 61.670 C 226.680 62.952, 225.213 64, 224.427 64 C 223.642 64, 223 64.477, 223 65.059 C 223 65.641, 222.662 65.914, 222.250 65.664 C 221.272 65.072, 218.934 67.601, 219.727 68.393 C 220.060 68.727, 219.398 69, 218.256 69 C 217.113 69, 214.968 70.438, 213.489 72.196 C 211.005 75.148, 205.184 79.129, 206.526 76.958 C 207.580 75.253, 206.168 75.940, 203.461 78.449 C 202.008 79.796, 201.082 81.323, 201.404 81.844 C 201.725 82.365, 201.324 83.046, 200.511 83.357 C 199.666 83.682, 199.288 84.587, 199.628 85.473 C 200.049 86.571, 199.775 86.851, 198.688 86.434 C 197.004 85.787, 194.585 89.199, 195.785 90.529 C 196.178 90.964, 195.998 91.034, 195.384 90.684 C 194.770 90.334, 193.462 90.937, 192.479 92.024 C 191.495 93.111, 190.085 94, 189.345 94 C 188.126 94, 187.626 95.435, 187.718 98.671 C 187.736 99.315, 187.132 99.604, 186.376 99.314 C 185.383 98.933, 185 99.687, 185 102.026 C 185 104.378, 184.037 106.259, 181.490 108.883 C 179.559 110.873, 178.097 112.757, 178.240 113.071 C 178.383 113.386, 177.708 114.434, 176.741 115.402 C 175.773 116.370, 175.237 117.575, 175.550 118.081 C 175.862 118.586, 175.694 119, 175.176 119 C 174.657 119, 173.998 119.900, 173.710 121 C 173.411 122.145, 173.682 123.007, 174.344 123.015 C 174.990 123.024, 174.839 123.458, 174 124 C 173.175 124.533, 172.833 124.976, 173.241 124.985 C 173.648 124.993, 172.636 127.187, 170.991 129.861 C 169.346 132.534, 168 135.432, 168 136.302 C 168 137.171, 167.511 138.184, 166.913 138.554 C 166.315 138.923, 166.042 140.053, 166.307 141.065 C 166.571 142.076, 166.273 143.078, 165.644 143.289 C 164.841 143.560, 164.923 144.187, 165.919 145.394 C 167.145 146.878, 167.145 147.071, 165.919 146.806 C 164.819 146.569, 164.537 147.682, 164.663 151.750 C 164.753 154.637, 164.400 157, 163.878 157 C 163.298 157, 163.318 157.727, 163.930 158.869 C 164.480 159.896, 164.678 160.988, 164.371 161.295 C 164.064 161.602, 163.664 168.974, 163.483 177.677 C 163.302 186.380, 162.951 194.400, 162.705 195.500 C 162.459 196.600, 162.704 198.063, 163.251 198.750 C 163.931 199.606, 163.872 200, 163.063 200 C 162.414 200, 162.110 200.369, 162.389 200.820 C 162.668 201.271, 163.104 202.734, 163.359 204.070 C 163.613 205.407, 164.135 207.288, 164.518 208.250 C 164.951 209.338, 164.755 210, 164 210 C 163.332 210, 163.045 210.674, 163.362 211.500 C 163.678 212.325, 163.486 213, 162.933 213 C 162.287 213, 162.315 213.720, 163.011 215.021 C 163.606 216.132, 163.781 217.546, 163.399 218.163 C 162.386 219.803, 162.074 239.073, 163.071 238.456 C 163.535 238.169, 163.283 239.154, 162.509 240.645 C 161.735 242.137, 161.392 243.825, 161.745 244.397 C 162.099 244.969, 162.415 247.553, 162.447 250.138 C 162.479 252.723, 162.842 255.175, 163.253 255.586 C 164.371 256.705, 164.154 259.213, 163 258.500 C 162.450 258.160, 161.936 258.471, 161.858 259.191 C 161.200 265.240, 161.322 267.584, 162.328 268.224 C 163.132 268.735, 163.151 268.974, 162.389 268.985 C 161.172 269.001, 161.720 273.709, 163.033 274.520 C 163.470 274.790, 163.621 276.809, 163.368 279.006 C 163.050 281.772, 163.292 283, 164.155 283 C 165 283, 165.073 283.327, 164.382 284.018 C 163.769 284.631, 163.630 287.119, 164.033 290.261 C 164.402 293.134, 164.572 296.838, 164.411 298.493 C 163.586 306.964, 163.058 309.348, 161.837 310.122 C 160.874 310.732, 160.843 310.974, 161.725 310.985 C 162.627 310.996, 162.693 311.678, 161.975 313.565 C 160.756 316.771, 160.709 321.702, 161.890 322.432 C 162.870 323.038, 164.595 343.509, 164.117 348.865 C 163.886 351.462, 164.124 352.047, 165.159 351.424 C 166.191 350.802, 166.253 350.948, 165.427 352.058 C 164.837 352.851, 164.271 354.916, 164.169 356.647 C 164.067 358.378, 163.321 361.381, 162.511 363.320 C 161.372 366.045, 161.317 366.959, 162.269 367.344 C 162.946 367.618, 163.028 367.878, 162.451 367.921 C 161.849 367.966, 161.575 369.489, 161.809 371.492 C 162.047 373.528, 162.641 374.722, 163.235 374.355 C 163.915 373.935, 163.931 374.301, 163.283 375.460 C 162.065 377.636, 162.897 387.248, 164.389 388.235 C 165.155 388.741, 165.095 388.974, 164.199 388.985 C 163.198 388.996, 163.005 390.909, 163.364 397.250 C 163.621 401.788, 163.898 405.500, 163.979 405.500 C 164.129 405.500, 164.210 406.613, 165.327 424 C 166.211 437.748, 167.127 508.743, 166.400 507.179 C 165.052 504.277, 163.275 510.779, 163.551 517.602 C 163.705 521.396, 163.910 524.500, 164.006 524.500 C 164.102 524.500, 164.374 527.425, 164.609 531 C 164.845 534.575, 165.316 538.175, 165.656 539 C 166.531 541.124, 166.530 544.333, 165.654 545.751 C 165.243 546.415, 165.340 547.767, 165.869 548.755 C 166.492 549.919, 166.475 551.187, 165.820 552.357 C 165.264 553.350, 165.035 555.026, 165.311 556.082 C 165.587 557.137, 165.517 558, 165.156 558 C 163.854 558, 163.631 577.822, 164.915 579.449 C 165.371 580.027, 165.587 583.313, 165.394 586.750 C 165.164 590.844, 165.423 593, 166.144 593 C 166.881 593, 166.834 593.496, 166 594.500 C 165.087 595.600, 165.067 596, 165.923 596 C 166.716 596, 166.880 597.123, 166.434 599.500 C 165.945 602.104, 166.126 603.004, 167.139 603.015 C 168.170 603.027, 168.204 603.219, 167.276 603.808 C 166.596 604.240, 165.972 607.013, 165.874 610.043 C 165.776 613.044, 165.380 615.725, 164.993 616 C 164.266 616.517, 165.640 631.343, 166.661 634 C 167.603 636.450, 167.745 666, 166.815 666 C 166.345 666, 166.165 667.125, 166.414 668.500 C 166.664 669.875, 166.508 671, 166.069 671 C 165.140 671, 165.617 684.269, 166.658 687.388 C 167.489 689.877, 167.167 694.432, 165.930 697.684 C 165.403 699.070, 165.440 701.027, 166.022 702.557 C 166.556 703.964, 166.596 704.869, 166.111 704.568 C 164.756 703.731, 164.079 707.679, 165.357 708.957 C 166.087 709.687, 166.134 710.333, 165.492 710.792 C 164.193 711.719, 163.752 716, 164.954 716 C 166.169 716, 165.425 719.783, 163.834 721.700 C 161.902 724.028, 161.671 727.340, 163.489 726.642 C 164.683 726.184, 165 726.908, 165 730.090 C 165 732.306, 165.354 733.900, 165.786 733.632 C 166.561 733.153, 166.970 735.260, 166.994 739.850 C 167 741.143, 167.341 742.718, 167.750 743.350 C 168.159 743.983, 168.569 746.300, 168.659 748.500 C 168.968 755.999, 170.956 760.735, 175.661 765.186 C 179.951 769.246, 182.664 769.916, 189.361 768.573 C 193.545 767.734, 196.164 766.501, 198.513 764.267 C 200.322 762.545, 202.144 761.443, 202.561 761.818 C 202.978 762.193, 203.038 761.718, 202.695 760.762 C 202.352 759.806, 202.452 759.131, 202.916 759.262 C 203.809 759.514, 207.211 756.117, 210.442 751.747 C 211.511 750.302, 212.748 749.344, 213.192 749.619 C 213.637 749.893, 214 749.416, 214 748.559 C 214 747.702, 214.450 747, 215 747 C 215.550 747, 216 746.298, 216 745.441 C 216 744.584, 216.450 744.160, 217 744.500 C 217.550 744.840, 218 744.710, 218 744.212 C 218 742.905, 221.553 739, 222.742 739 C 223.297 739, 224.026 737.620, 224.363 735.934 C 224.701 734.247, 225.385 733.120, 225.883 733.428 C 226.382 733.736, 227.048 733.316, 227.364 732.494 C 227.679 731.672, 228.626 731, 229.469 731 C 230.311 731, 231 730.374, 231 729.608 C 231 728.843, 232.165 727.924, 233.588 727.567 C 235.840 727.002, 236.003 726.707, 234.838 725.295 C 233.636 723.838, 233.729 723.795, 235.750 724.871 C 237.627 725.872, 238 725.816, 238 724.535 C 238 723.691, 238.498 723, 239.107 723 C 239.743 723, 239.933 722.268, 239.554 721.280 C 239.191 720.335, 239.197 719.863, 239.566 720.233 C 240.566 721.233, 242.568 718.856, 243.350 715.740 C 243.729 714.233, 244.485 713, 245.031 713 C 245.578 713, 247.540 710.637, 249.392 707.750 C 251.244 704.862, 256.413 698.807, 260.879 694.293 C 265.346 689.779, 269 685.772, 269 685.389 C 269 683.767, 292.949 658.083, 294.509 658.033 C 295.532 658, 298.097 654.511, 297.911 653.406 C 297.757 652.489, 315.924 635, 317.031 635 C 317.564 635, 318 634.523, 318 633.941 C 318 633.359, 317.437 633.220, 316.750 633.633 C 315.944 634.117, 316.001 633.767, 316.912 632.645 C 318.022 631.277, 318.499 631.182, 319.146 632.203 C 319.787 633.213, 319.973 633.167, 319.985 631.993 C 319.993 631.164, 321.462 629.139, 323.250 627.493 C 325.038 625.847, 326.545 623.938, 326.600 623.250 C 326.833 620.343, 327.052 619.914, 328.002 620.501 C 328.553 620.842, 329.400 620.078, 329.884 618.805 C 330.893 616.152, 340.284 606, 341.729 606 C 343.152 606, 346.112 602.445, 345.336 601.669 C 344.968 601.301, 345.267 601, 346 601 C 346.733 601, 347.071 600.738, 346.750 600.417 C 346.165 599.832, 347.940 597.800, 351.485 595 C 352.530 594.175, 353.075 594.015, 352.698 594.645 C 352.018 595.780, 354.649 597.517, 356.419 597.102 C 356.925 596.984, 356.757 597.588, 356.047 598.444 C 354.965 599.747, 355.028 600, 356.437 600 C 357.361 600, 357.840 600.450, 357.500 601 C 357.160 601.550, 357.835 602, 359 602 C 360.165 602, 360.893 602.364, 360.618 602.809 C 360.343 603.255, 361.441 604.712, 363.059 606.049 C 364.676 607.385, 366.012 608.933, 366.028 609.489 C 366.043 610.045, 367.393 611.812, 369.028 613.417 C 370.662 615.021, 372 616.708, 372 617.167 C 372 617.625, 372.675 618, 373.500 618 C 374.325 618, 375 618.450, 375 619 C 375 619.550, 375.702 620, 376.559 620 C 377.416 620, 377.850 620.434, 377.523 620.964 C 376.690 622.311, 380.826 626.226, 382.191 625.382 C 382.859 624.969, 383.030 625.143, 382.615 625.814 C 381.854 627.046, 387.027 633, 388.858 633 C 389.486 633, 390 633.702, 390 634.559 C 390 635.416, 390.450 635.840, 391 635.500 C 391.550 635.160, 392 635.406, 392 636.047 C 392 636.688, 393.125 638.097, 394.500 639.179 C 395.875 640.260, 397 641.787, 397 642.573 C 397 643.358, 397.675 644, 398.500 644 C 399.325 644, 400 644.416, 400 644.925 C 400 645.720, 403.704 650.130, 410.250 657.129 C 411.212 658.158, 412 659.450, 412 660 C 412 660.550, 412.563 661.026, 413.250 661.057 C 413.938 661.089, 416.300 663.275, 418.500 665.915 C 420.700 668.556, 430.488 679.762, 440.250 690.817 C 450.012 701.873, 458 711.197, 458 711.538 C 458 711.878, 459.688 713.893, 461.750 716.015 C 467.749 722.187, 471 726.018, 471 726.918 C 471 727.379, 471.670 728.311, 472.489 728.991 C 473.308 729.671, 473.731 730.626, 473.430 731.113 C 473.129 731.601, 473.359 732, 473.941 732 C 474.523 732, 475 732.627, 475 733.393 C 475 734.159, 475.722 735.063, 476.604 735.401 C 477.486 735.740, 477.975 736.622, 477.692 737.361 C 477.031 739.082, 480.708 742.282, 482.297 741.370 C 482.959 740.990, 483.217 740.997, 482.872 741.385 C 482.092 742.260, 488.829 749.357, 491.345 750.311 C 492.360 750.695, 493.423 751.903, 493.709 752.994 C 493.994 754.085, 494.626 754.731, 495.114 754.430 C 495.601 754.128, 496 754.528, 496 755.319 C 496 756.109, 496.686 757.324, 497.524 758.020 C 498.362 758.716, 498.815 759.518, 498.530 759.804 C 498.244 760.089, 499.715 761.993, 501.798 764.035 C 503.880 766.076, 505.415 768.254, 505.209 768.873 C 505.002 769.493, 505.546 770, 506.417 770 C 507.288 770, 508 770.707, 508 771.571 C 508 773.307, 510.468 776.199, 511.267 775.400 C 511.545 775.122, 512.705 776.081, 513.846 777.531 C 515.085 779.106, 516.401 779.870, 517.114 779.429 C 517.870 778.963, 518.046 779.116, 517.594 779.847 C 516.929 780.924, 521.419 783.556, 523.250 783.161 C 523.663 783.073, 524 783.509, 524 784.131 C 524 784.866, 525.232 785.062, 527.522 784.690 C 529.689 784.339, 530.813 784.493, 530.443 785.091 C 530.083 785.675, 531.214 785.913, 533.266 785.687 C 537.324 785.240, 539.252 784.217, 538.457 782.931 C 538.141 782.419, 538.490 782, 539.234 782 C 540.727 782, 544.500 771.968, 544.500 768 C 544.500 766.625, 544.050 765.128, 543.500 764.674 C 542.852 764.138, 542.937 763.670, 543.742 763.343 C 544.645 762.976, 544.704 762.315, 543.957 760.919 C 543.392 759.864, 543.307 759, 543.768 759 C 544.229 759, 544.598 751.609, 544.587 742.575 C 544.574 731.540, 544.228 726.352, 543.534 726.767 C 542.925 727.130, 542.956 726.791, 543.609 725.942 C 544.219 725.149, 544.655 721.575, 544.577 718 C 544.499 714.425, 544.741 710.038, 545.113 708.250 C 545.509 706.344, 545.386 705, 544.815 705 C 544.233 705, 544.135 703.692, 544.571 701.750 C 544.973 699.962, 545.244 698.050, 545.173 697.500 C 544.285 690.602, 544.262 688, 545.090 688 C 545.692 688, 545.731 687.324, 545.192 686.250 C 544.709 685.288, 544.620 683.375, 544.993 682 C 545.366 680.625, 545.307 678.487, 544.861 677.250 C 544.374 675.900, 544.440 675, 545.025 675 C 545.561 675, 546 674.523, 546 673.941 C 546 673.359, 545.632 673.109, 545.182 673.387 C 544.376 673.886, 544.605 663.617, 545.452 661.315 C 545.691 660.663, 545.350 659.911, 544.694 659.644 C 543.880 659.312, 543.936 659.133, 544.872 659.079 C 546.008 659.014, 546.019 658.728, 544.937 657.424 C 544.163 656.492, 544.011 655.572, 544.564 655.174 C 545.839 654.256, 545.810 645.680, 544.529 644.765 C 543.824 644.262, 543.825 644.026, 544.533 644.015 C 546.048 643.993, 546.233 634.766, 544.737 633.816 C 543.993 633.344, 543.932 633.025, 544.583 633.015 C 545.178 633.007, 545.553 631.988, 545.416 630.750 C 545.279 629.513, 545.090 628.500, 544.997 628.500 C 544.904 628.500, 544.721 627.038, 544.590 625.250 C 544.459 623.462, 544.610 622, 544.926 621.999 C 545.242 621.999, 545.552 617.285, 545.615 611.524 C 545.691 604.634, 545.381 601.264, 544.711 601.679 C 544.060 602.081, 544.008 601.801, 544.567 600.905 C 545.049 600.132, 545.532 596.350, 545.641 592.500 C 545.749 588.650, 546.073 584.487, 546.362 583.250 C 546.653 581.997, 546.413 581, 545.820 581 C 545.067 581, 545.067 580.624, 545.820 579.716 C 546.468 578.936, 546.539 577.872, 546 577 C 545.461 576.128, 545.532 575.064, 546.180 574.284 C 546.928 573.382, 546.929 573, 546.185 573 C 544.938 573, 544.966 569.016, 546.225 567.339 C 546.732 566.665, 546.694 565.929, 546.135 565.583 C 545.185 564.996, 545.614 557.433, 546.697 555.681 C 547.005 555.183, 546.636 554.384, 545.878 553.904 C 544.918 553.295, 544.871 553.026, 545.725 553.015 C 546.639 553.004, 546.693 552.322, 545.936 550.333 C 545.379 548.866, 545.277 547.404, 545.711 547.083 C 546.931 546.181, 547.121 544, 545.980 544 C 545.384 544, 545.219 542.859, 545.583 541.250 C 546.637 536.591, 546.573 517.553, 545.500 516.765 C 544.898 516.323, 545.046 516.025, 545.872 516.015 C 547.008 516.003, 547.020 515.728, 545.937 514.424 C 545.163 513.492, 545.011 512.572, 545.564 512.174 C 546.894 511.216, 546.925 501.648, 545.602 500.765 C 544.823 500.246, 544.848 500.026, 545.688 500.015 C 546.341 500.007, 546.808 499.100, 546.725 498 C 546.642 496.900, 546.220 496, 545.787 496 C 545.354 496, 545 495.523, 545 494.941 C 545 494.359, 545.509 494.197, 546.132 494.581 C 546.956 495.091, 547.100 493.190, 546.662 487.593 C 546.330 483.365, 545.814 479.508, 545.513 479.022 C 545.213 478.536, 545.425 477.856, 545.984 477.510 C 547.294 476.700, 547.304 472.306, 545.997 471.498 C 545.375 471.114, 545.337 470.238, 545.897 469.189 C 546.394 468.260, 546.679 466.081, 546.531 464.348 C 546.383 462.614, 546.604 460.640, 547.023 459.962 C 547.442 459.284, 547.152 457.216, 546.379 455.365 C 545.606 453.514, 545.387 452, 545.894 452 C 546.400 452, 546.828 449.413, 546.845 446.250 C 546.862 443.088, 547.194 439.196, 547.583 437.601 C 548.150 435.275, 548.015 434.869, 546.895 435.543 C 545.733 436.244, 545.717 436.116, 546.799 434.781 C 547.674 433.700, 547.755 432.966, 547.046 432.528 C 546.348 432.097, 546.320 431.270, 546.962 430.071 C 547.494 429.076, 547.646 427.980, 547.300 427.633 C 546.317 426.651, 546.039 422, 546.962 422 C 547.417 422, 547.724 420.875, 547.644 419.501 C 547.565 418.126, 547.223 417.001, 546.884 417.001 C 546.546 417, 546.614 415.111, 547.036 412.801 C 547.459 410.492, 547.589 407.230, 547.326 405.551 C 547.063 403.873, 546.893 401.938, 546.948 401.250 C 547.003 400.563, 547.048 399.100, 547.048 398 C 547.048 396.900, 547.069 395.212, 547.095 394.250 C 547.500 379.328, 547.402 373.198, 546.736 371.750 C 546.292 370.788, 546.283 370, 546.715 370 C 547.147 370, 547.511 366.625, 547.525 362.500 C 547.538 358.375, 547.146 355, 546.652 355 C 546.159 355, 546.217 354.438, 546.782 353.750 C 547.347 353.063, 547.722 350.363, 547.615 347.750 C 547.507 345.137, 547.791 343, 548.245 343 C 548.699 343, 548.589 342.100, 548 341 C 547.216 339.535, 547.240 339, 548.087 339 C 548.859 339, 548.925 338.583, 548.285 337.750 C 547.757 337.063, 547.404 334.831, 547.500 332.791 C 547.615 330.351, 547.303 329.305, 546.588 329.733 C 545.820 330.193, 545.806 329.960, 546.540 328.942 C 547.111 328.149, 547.526 324.575, 547.462 321 C 547.397 317.425, 547.763 314.220, 548.276 313.877 C 548.830 313.506, 548.719 312.343, 548 311 C 547.057 309.239, 547.058 308.582, 548.004 307.998 C 548.669 307.587, 548.806 306.998, 548.309 306.691 C 547.272 306.050, 547.325 294.901, 548.373 293.205 C 549.605 291.212, 548.724 284.892, 547.290 285.442 C 546.376 285.793, 546.463 285.224, 547.583 283.514 C 548.514 282.093, 548.838 280.552, 548.365 279.794 C 547.241 277.991, 546.861 275, 547.756 275 C 548.165 275, 548.500 273.875, 548.500 272.500 C 548.500 271.125, 548.150 270, 547.722 270 C 546.795 270, 547.297 263.946, 548.368 262.213 C 548.809 261.500, 548.579 260.994, 547.809 260.985 C 546.747 260.972, 546.743 260.815, 547.789 260.152 C 548.733 259.553, 548.817 258.649, 548.103 256.770 C 547.566 255.360, 547.338 253.995, 547.595 253.738 C 548.663 252.670, 548.879 248.559, 547.928 247.413 C 547.364 246.734, 547.285 245.942, 547.752 245.653 C 548.219 245.364, 548.712 243.260, 548.846 240.977 C 549.024 237.958, 548.764 237.028, 547.891 237.567 C 547.051 238.087, 546.957 237.888, 547.577 236.905 C 548.759 235.032, 549.069 205.839, 547.899 206.562 C 547.405 206.868, 547 206.641, 547 206.059 C 547 205.477, 547.482 205, 548.072 205 C 549.318 205, 549.010 200.095, 547.646 198.227 C 546.948 197.270, 547.187 197.131, 548.609 197.664 C 550.279 198.292, 550.340 198.178, 549.128 196.687 C 548.373 195.759, 548.213 195, 548.772 195 C 549.331 195, 549.778 193.987, 549.766 192.750 C 549.730 189.023, 550.397 185, 551.051 185 C 551.390 185, 551.727 184.438, 551.800 183.750 C 551.874 183.063, 552.821 178.700, 553.906 174.056 C 554.991 169.412, 555.654 165.249, 555.380 164.806 C 555.106 164.363, 555.636 164, 556.558 164 C 557.741 164, 558.080 163.412, 557.710 161.999 C 557.377 160.725, 557.578 160.239, 558.263 160.663 C 558.944 161.084, 559.105 160.717, 558.701 159.664 C 558.288 158.588, 558.570 158, 559.500 158 C 560.305 158, 560.706 157.398, 560.412 156.631 C 560.100 155.819, 560.723 155.044, 561.943 154.725 C 563.193 154.398, 564 153.365, 564 152.094 C 564 150.942, 564.450 150, 565 150 C 565.550 150, 566 149.155, 566 148.122 C 566 147.090, 566.648 145.707, 567.441 145.049 C 568.233 144.392, 568.635 143.212, 568.334 142.427 C 568.032 141.642, 568.284 141, 568.893 141 C 569.502 141, 570 140.298, 570 139.441 C 570 138.584, 570.450 138.160, 571 138.500 C 571.899 139.056, 572.433 137.743, 572.118 135.750 C 572.053 135.338, 572.432 135, 572.961 135 C 574.403 135, 578.082 130.745, 577.677 129.545 C 577.483 128.970, 578.039 127.904, 578.912 127.176 C 579.856 126.388, 579.931 126.147, 579.095 126.580 C 578.172 127.059, 577.935 126.914, 578.405 126.155 C 578.797 125.520, 579.714 125, 580.442 125 C 581.629 125, 583.367 121.617, 583.120 119.786 C 583.067 119.393, 583.636 119.307, 584.383 119.593 C 585.970 120.202, 589 117.489, 589 115.460 C 589 114.629, 589.608 114.296, 590.500 114.638 C 591.457 115.006, 592 114.621, 592 113.576 C 592 112.674, 592.658 111.685, 593.462 111.376 C 594.266 111.068, 595.187 109.987, 595.508 108.974 C 595.867 107.845, 596.813 107.271, 597.954 107.491 C 599.006 107.694, 601.487 106.422, 603.658 104.568 C 607.141 101.592, 614.343 97.344, 616.270 97.128 C 617.594 96.980, 619.812 94.536, 619.336 93.750 C 619.086 93.338, 619.835 93, 621 93 C 622.165 93, 622.840 92.550, 622.500 92 C 622.160 91.450, 622.598 91, 623.472 91 C 624.347 91, 625.321 90.328, 625.636 89.506 C 625.952 88.684, 626.612 88.260, 627.105 88.565 C 627.597 88.869, 628 88.384, 628 87.488 C 628 86.591, 628.701 85.156, 629.558 84.300 C 630.414 83.443, 630.893 82.162, 630.621 81.454 C 630.349 80.745, 630.703 79.944, 631.408 79.674 C 634.728 78.400, 635.739 65.693, 632.671 63.796 C 632.027 63.399, 631.500 62.672, 631.500 62.182 C 631.500 60.555, 625.070 55.839, 623.866 56.583 C 623.169 57.013, 622.957 56.879, 623.344 56.252 C 624.560 54.285, 615.747 51.808, 608.500 52.080 C 606.300 52.162, 599.325 52.194, 593 52.150 C 586.675 52.107, 570.370 52.024, 556.766 51.965 C 541.838 51.902, 531.792 51.472, 531.427 50.881 C 531.040 50.256, 530.402 50.249, 529.661 50.860 C 528.316 51.969, 512.093 51.794, 510.244 50.651 C 509.560 50.228, 509 50.246, 509 50.691 C 509 51.136, 498.875 51.517, 486.500 51.537 C 474.125 51.557, 464 51.267, 464 50.892 C 464 50.517, 462.537 50.521, 460.750 50.899 C 457.023 51.689, 451.400 51.568, 447.608 50.616 C 445.826 50.169, 444.995 50.364, 444.985 51.231 C 444.974 52.087, 444.730 52.148, 444.235 51.419 C 443.430 50.234, 433.091 50.208, 431.186 51.385 C 430.534 51.788, 430 51.747, 430 51.294 C 430 50.287, 414.454 50.213, 413.452 51.215 C 413.059 51.608, 411.929 51.497, 410.941 50.968 C 409.953 50.440, 408.437 50.279, 407.572 50.611 C 406.621 50.976, 405.994 50.678, 405.985 49.857 C 405.973 48.810, 405.748 48.843, 405 50 C 404.372 50.972, 404.025 51.066, 404.015 50.267 C 403.999 48.925, 395.419 49.005, 393.213 50.368 C 392.546 50.781, 392 50.694, 392 50.176 C 392 48.930, 387.105 48.021, 386.415 49.138 C 386.119 49.616, 384.774 49.730, 383.426 49.392 C 382.053 49.048, 380.325 49.316, 379.499 50.001 C 378.311 50.987, 377.904 50.915, 377.412 49.631 C 377.005 48.570, 376.248 48.290, 375.150 48.794 C 373.125 49.723, 370.887 49.690, 369.319 48.707 C 368.670 48.300, 367.826 48.473, 367.444 49.090 C 366.947 49.894, 366.523 49.846, 365.951 48.921 C 365.307 47.878, 364.811 47.906, 363.384 49.064 C 361.835 50.322, 361.726 50.314, 362.500 49 C 363.214 47.789, 363.106 47.724, 361.942 48.662 C 361.149 49.301, 359.375 49.832, 358 49.843 C 356.625 49.854, 354.302 50.075, 352.838 50.334 C 351.375 50.593, 348.961 50.173, 347.474 49.402 C 344.150 47.677, 343.673 47.652, 344.633 49.250 C 345.229 50.242, 345.071 50.247, 343.868 49.274 C 342.094 47.839, 338.002 48.394, 336.839 50.227 C 336.204 51.226, 336.027 51.231, 336.015 50.250 C 336.007 49.563, 335.523 49, 334.941 49 C 334.359 49, 334.159 49.449, 334.498 49.997 C 334.905 50.656, 334.218 50.653, 332.473 49.990 C 331.021 49.438, 329.460 49.216, 329.005 49.497 C 328.549 49.778, 326.863 49.254, 325.257 48.333 C 323.332 47.228, 321.683 46.938, 320.418 47.482 C 319.363 47.936, 317.712 48.210, 316.750 48.091 C 315.788 47.972, 315 48.256, 315 48.723 C 315 49.190, 314.100 49.571, 313 49.571 C 311.900 49.571, 311 49.296, 311 48.959 C 311 48.622, 308.975 48.460, 306.500 48.600 C 304.025 48.740, 302 48.437, 302 47.927 C 302 47.417, 301.550 47, 301 47 C 300.450 47, 300 47.587, 300 48.304 M 419.750 82.752 C 418.788 82.969, 418 83.479, 418 83.886 C 418 84.292, 421.083 87.972, 424.850 92.063 C 434.429 102.462, 441.036 116.217, 450.172 144.778 C 454.382 157.939, 457.774 164, 460.928 164 C 461.933 164, 463.340 164.705, 464.054 165.566 C 465.131 166.863, 465.066 167.618, 463.677 169.970 C 461.243 174.090, 461.531 174.868, 466.250 176.914 C 470.938 178.947, 472.389 181.432, 473.473 189.288 C 474.066 193.585, 474.437 194.137, 477.088 194.668 C 478.712 194.992, 480.286 195.654, 480.585 196.138 C 481.482 197.589, 479.971 201, 478.433 201 C 475.518 201, 477.130 203.665, 481.257 205.670 C 484.385 207.190, 486.115 208.941, 487.778 212.270 C 489.023 214.763, 490.649 217.035, 491.392 217.320 C 492.135 217.605, 493.049 219.059, 493.423 220.551 C 493.798 222.043, 495.093 224.069, 496.302 225.054 L 498.500 226.843 495.626 229.856 L 492.751 232.869 496.172 234.299 C 500.223 235.991, 505.140 241.470, 504.382 243.446 C 504.088 244.212, 504.593 245.976, 505.504 247.366 C 506.416 248.757, 507.182 250.256, 507.208 250.697 C 507.234 251.139, 507.482 252.091, 507.759 252.814 C 508.036 253.536, 507.766 255.219, 507.158 256.552 C 506.551 257.885, 506.340 259.722, 506.689 260.633 C 507.083 261.659, 506.606 262.815, 505.437 263.669 C 503.833 264.843, 503.739 265.353, 504.811 267.069 C 505.880 268.781, 505.751 269.541, 503.968 272.045 C 502.811 273.670, 501.389 275, 500.809 275 C 500.155 275, 500.227 275.569, 501 276.500 C 501.993 277.697, 501.993 278.303, 501 279.500 C 500.315 280.325, 499.121 281, 498.346 281 C 496.077 281, 495.608 278.091, 497.534 275.963 C 499.245 274.072, 499.233 274, 497.222 274 C 494.945 274, 493.585 276.755, 494.581 279.351 C 495.616 282.049, 491.914 282.756, 490.208 280.186 C 488.819 278.094, 488.675 278.079, 485.884 279.728 C 484.296 280.665, 482.764 282.167, 482.479 283.065 C 481.686 285.565, 477.123 287.347, 475.329 285.858 C 473.507 284.346, 463.926 283.906, 462.237 285.256 C 461.047 286.208, 451.997 284.208, 448.063 282.123 C 447.273 281.704, 444.133 281.752, 441.086 282.230 C 436.893 282.888, 435.297 282.783, 434.523 281.800 C 433.380 280.347, 431.679 280.030, 421.280 279.330 C 415.726 278.956, 413.541 279.208, 411.808 280.422 C 410.569 281.290, 408.488 282, 407.184 282 C 405.707 282, 404.628 282.707, 404.323 283.874 C 403.749 286.067, 398.346 290.332, 397.109 289.568 C 396.643 289.280, 394.650 290.609, 392.680 292.522 C 390.711 294.435, 388.093 296, 386.864 296 C 385.635 296, 383.581 296.984, 382.301 298.187 C 380.505 299.874, 379.702 300.102, 378.787 299.187 C 377.186 297.586, 374 297.679, 374 299.326 C 374 300.847, 369.872 305, 368.360 305 C 367.804 305, 366.292 306.125, 365 307.500 C 363.708 308.875, 361.611 310, 360.339 310 C 358.676 310, 357.645 310.912, 356.668 313.250 C 355.067 317.079, 350.734 319.837, 348.784 318.268 C 347.288 317.063, 341 317.785, 341 319.161 C 341 321.595, 335.576 325.002, 331.604 325.063 C 328.044 325.118, 327.808 325.250, 329.824 326.059 C 332.753 327.233, 332.346 330.376, 329.208 330.824 C 327.201 331.110, 327.011 331.544, 327.578 334.563 C 328.255 338.174, 328.188 338.241, 322.653 339.460 C 320.266 339.985, 319.900 340.466, 320.393 342.429 C 320.760 343.893, 320.422 345.235, 319.490 346.008 C 318.671 346.688, 318 348.101, 318 349.147 C 318 350.261, 316.954 351.447, 315.474 352.010 C 314.085 352.538, 312.645 353.764, 312.273 354.735 C 311.901 355.706, 310.563 358.025, 309.298 359.890 C 308.034 361.754, 307 364.016, 307 364.917 C 307 366.580, 304.603 369.097, 300.037 372.228 C 298.207 373.484, 297.587 374.716, 297.773 376.728 C 297.980 378.961, 297.261 380.039, 294.074 382.272 C 290.843 384.536, 290.061 385.728, 289.809 388.772 C 289.530 392.142, 289.223 392.500, 286.619 392.500 C 284.644 392.500, 283.501 393.135, 282.987 394.518 C 282.574 395.628, 280.853 398.016, 279.162 399.826 C 276.536 402.638, 275.787 402.956, 274.023 402.012 C 272.888 401.405, 271.475 401.206, 270.884 401.572 C 270.293 401.937, 268.698 401.641, 267.340 400.914 C 265.342 399.845, 264.719 399.836, 264.080 400.870 C 262.759 403.009, 256.655 401.854, 255.513 399.250 C 254.970 398.012, 254.206 397, 253.814 397 C 253.423 397, 251.889 395.875, 250.405 394.500 C 248.922 393.125, 247.341 392, 246.893 392 C 246.444 392, 245.598 390.219, 245.011 388.042 C 244.425 385.865, 243.508 383.814, 242.973 383.483 C 242.438 383.153, 242 381.832, 242 380.549 C 242 378.928, 241.276 378.035, 239.627 377.621 C 236.982 376.957, 235.266 373.536, 234.560 367.521 C 234.151 364.028, 232.562 361.727, 229.910 360.786 C 229.466 360.629, 228.968 358.371, 228.802 355.769 C 228.532 351.539, 228.182 350.921, 225.500 349.936 C 220.179 347.983, 219.505 347.354, 219.178 344.030 C 219 342.232, 217.988 339.830, 216.928 338.692 C 215.867 337.554, 215 335.655, 215 334.472 C 215 333.148, 214.039 331.883, 212.500 331.182 C 211.125 330.555, 210 329.406, 210 328.628 C 210 326.963, 203.382 324.087, 200.989 324.713 C 198.866 325.268, 198.859 325.325, 199.280 338.249 C 199.401 341.962, 199.136 344.999, 198.691 344.999 C 198.246 345, 198.166 345.459, 198.512 346.020 C 199.549 347.698, 199.891 361.949, 198.909 362.556 C 198.409 362.865, 198 363.568, 198 364.118 C 198 364.668, 198.348 364.903, 198.773 364.640 C 199.742 364.041, 199.738 372.102, 198.768 373.611 C 198.376 374.221, 198.380 375.046, 198.777 375.443 C 199.781 376.447, 199.815 385.004, 198.813 384.384 C 197.750 383.727, 197.787 384.311, 199.017 387.544 C 199.673 389.269, 199.701 391.423, 199.097 393.609 C 198.531 395.659, 198.525 397, 199.081 397 C 199.586 397, 200 397.477, 200 398.059 C 200 398.641, 199.480 398.797, 198.845 398.405 C 198.055 397.916, 197.967 398.134, 198.567 399.095 C 199.895 401.226, 200.116 404, 198.959 404 C 198.274 404, 198.255 404.608, 198.903 405.819 C 199.963 407.799, 199.882 409.799, 198.663 411.750 C 198.233 412.438, 198.262 413, 198.727 413 C 199.952 413, 199.777 426.362, 198.541 427.235 C 197.864 427.713, 197.934 427.975, 198.742 427.985 C 200.096 428.001, 199.955 432.646, 198.531 434.950 C 197.965 435.865, 198.068 436.076, 198.845 435.595 C 199.480 435.203, 200 435.359, 200 435.941 C 200 436.523, 199.523 437, 198.941 437 C 198.359 437, 198.212 437.533, 198.615 438.185 C 199.722 439.978, 199.804 458.319, 198.710 459.750 C 198.079 460.576, 198.139 461, 198.887 461 C 199.680 461, 199.878 463.625, 199.549 469.750 C 199.013 479.716, 199.027 478.526, 199.305 490.750 C 199.434 496.426, 199.125 500.006, 198.507 500.015 C 197.882 500.025, 197.904 500.309, 198.566 500.765 C 200.070 501.802, 200.158 514.996, 198.662 515.015 C 197.870 515.026, 197.838 515.265, 198.561 515.765 C 199.145 516.169, 199.623 517.625, 199.623 519 C 199.623 520.375, 199.145 521.831, 198.561 522.235 C 197.826 522.743, 197.842 522.974, 198.613 522.985 C 199.226 522.993, 199.663 524.013, 199.584 525.250 C 199.506 526.487, 199.850 527.787, 200.349 528.138 C 200.849 528.490, 200.882 529.382, 200.422 530.127 C 199.403 531.775, 199.211 558, 200.218 558 C 200.613 558, 200.569 558.992, 200.120 560.205 C 199.671 561.417, 199.663 564.007, 200.102 565.959 C 200.541 567.912, 200.573 571.083, 200.173 573.005 C 199.773 574.927, 199.548 583.025, 199.672 591 C 200.062 616.016, 200.049 620.437, 199.575 622.750 C 199.322 623.988, 199.426 625, 199.807 625 C 200.188 625, 200.500 626.125, 200.500 627.500 C 200.500 628.875, 200.202 630, 199.838 630 C 199.474 630, 199.371 631.237, 199.610 632.750 C 200.004 635.246, 200.081 643.626, 199.769 650 C 199.702 651.375, 199.960 653.737, 200.342 655.250 C 200.725 656.763, 200.644 658, 200.163 658 C 199.682 658, 199.385 659.687, 199.504 661.750 C 199.623 663.813, 199.820 665.500, 199.942 665.500 C 200.065 665.500, 200.368 666.737, 200.616 668.250 C 200.874 669.817, 200.609 671, 199.999 671 C 199.265 671, 199.243 671.585, 199.930 672.869 C 200.480 673.896, 200.608 675.059, 200.215 675.452 C 199.388 676.279, 199.234 682, 200.039 682 C 201.004 682, 200.530 687.478, 199.500 688.235 C 198.886 688.686, 198.996 688.975, 199.785 688.985 C 200.730 688.996, 200.805 689.495, 200.070 690.869 C 199.520 691.896, 199.294 692.961, 199.568 693.235 C 200.527 694.193, 200.526 706.991, 199.567 707.311 C 199.034 707.489, 199.146 707.972, 199.816 708.386 C 200.562 708.847, 202.345 707.786, 204.425 705.645 C 206.291 703.723, 208.019 702.352, 208.265 702.598 C 208.510 702.844, 209.789 701.463, 211.106 699.529 C 212.423 697.596, 213.838 696.011, 214.250 696.007 C 214.662 696.003, 215 695.537, 215 694.970 C 215 694.404, 217.250 691.630, 220 688.807 C 222.750 685.984, 225 682.847, 225 681.837 C 225 680.827, 225.675 680, 226.500 680 C 227.325 680, 228 679.501, 228 678.891 C 228 677.762, 229.211 676.289, 236.750 668.245 C 239.088 665.750, 241 663.299, 241 662.796 C 241 662.293, 241.353 662.100, 241.784 662.367 C 242.216 662.633, 243.453 661.742, 244.534 660.387 C 245.615 659.031, 247.504 656.758, 248.731 655.335 C 249.958 653.912, 250.683 652.297, 250.342 651.744 C 250.001 651.192, 250.342 650.947, 251.101 651.200 C 252.518 651.673, 256 648.042, 256 646.092 C 256 645.492, 256.645 645, 257.433 645 C 258.221 645, 259.125 644.212, 259.442 643.250 C 260.024 641.485, 266 634.240, 266 635.299 C 266 635.613, 268.485 633.424, 271.522 630.435 C 274.560 627.446, 277.485 625, 278.022 625 C 278.560 625, 279 624.355, 279 623.567 C 279 622.779, 279.900 621.849, 281 621.500 C 282.100 621.151, 283 620.221, 283 619.433 C 283 618.645, 283.385 618, 283.855 618 C 284.325 618, 285.977 615.996, 287.525 613.546 C 289.074 611.097, 290.783 609.366, 291.325 609.701 C 291.866 610.035, 292.026 609.851, 291.680 609.292 C 291.334 608.732, 292.615 606.852, 294.526 605.113 C 296.437 603.374, 298 601.543, 298 601.043 C 298 600.544, 298.900 599.849, 300 599.500 C 301.100 599.151, 302 598.146, 302 597.266 C 302 596.386, 302.256 595.922, 302.568 596.235 C 302.881 596.547, 304.568 595.227, 306.318 593.301 C 308.068 591.375, 310.209 589.023, 311.076 588.073 C 311.943 587.124, 312.942 585.594, 313.295 584.674 C 313.648 583.753, 314.626 583, 315.469 583 C 316.311 583, 317 582.311, 317 581.469 C 317 580.626, 317.675 579.678, 318.500 579.362 C 319.325 579.045, 320 578.384, 320 577.893 C 320 577.402, 320.788 576.174, 321.750 575.165 C 324.362 572.426, 326.532 568.941, 326.256 567.930 C 326.122 567.438, 327.131 566.754, 328.499 566.411 C 329.867 566.068, 330.738 565.385, 330.434 564.893 C 330.130 564.402, 330.569 564, 331.410 564 C 332.346 564, 332.718 563.428, 332.371 562.523 C 332.008 561.579, 332.741 560.620, 334.402 559.863 C 335.831 559.212, 337 558.076, 337 557.339 C 337 556.603, 337.610 556, 338.355 556 C 339.100 556, 340.900 554.563, 342.355 552.807 C 343.870 550.979, 345.007 550.231, 345.015 551.057 C 345.024 551.914, 345.329 552.094, 345.765 551.500 C 346.169 550.950, 347.592 549.884, 348.927 549.131 C 351.033 547.943, 351.508 547.974, 352.525 549.366 C 353.170 550.247, 353.991 550.676, 354.349 550.318 C 354.707 549.960, 355 550.218, 355 550.892 C 355 551.574, 355.520 551.797, 356.170 551.395 C 356.969 550.901, 357.126 551.229, 356.666 552.428 C 356.187 553.677, 356.568 554.336, 357.985 554.706 C 359.081 554.993, 359.731 555.626, 359.430 556.114 C 359.128 556.601, 359.385 557, 360 557 C 360.615 557, 360.881 557.384, 360.591 557.853 C 360.301 558.322, 361.625 560.007, 363.532 561.597 C 365.439 563.188, 367 564.887, 367 565.374 C 367 565.861, 370.152 569.464, 374.003 573.380 C 385.979 585.555, 387 586.687, 387 587.791 C 387 588.382, 387.912 589.155, 389.027 589.508 C 390.141 589.862, 391.817 591.355, 392.751 592.826 C 393.685 594.297, 395.239 596.221, 396.206 597.102 C 397.173 597.982, 397.648 599.019, 397.262 599.404 C 396.877 599.790, 397.335 599.809, 398.280 599.446 C 399.487 598.983, 400 599.289, 400 600.471 C 400 601.398, 401.754 603.893, 403.897 606.015 C 406.040 608.137, 407.503 610.198, 407.147 610.596 C 406.791 610.993, 407.288 611.036, 408.250 610.691 C 409.431 610.267, 410 610.564, 410 611.603 C 410 612.450, 410.675 613.818, 411.500 614.643 C 412.325 615.468, 413 615.778, 413 615.332 C 413 614.885, 414.125 615.734, 415.500 617.217 C 416.875 618.699, 418 620.218, 418 620.592 C 418 620.965, 419.097 622.288, 420.438 623.530 C 421.779 624.773, 422.581 626.086, 422.219 626.448 C 421.857 626.810, 422.279 626.830, 423.157 626.493 C 424.295 626.057, 424.941 626.628, 425.406 628.483 C 425.766 629.915, 426.834 631.371, 427.780 631.720 C 428.726 632.069, 429.725 632.661, 430 633.035 C 434.601 639.303, 438.117 643.218, 441.892 646.277 C 443.098 647.254, 443.814 648.491, 443.484 649.027 C 443.153 649.562, 443.426 650, 444.091 650 C 444.756 650, 447.213 652.025, 449.551 654.500 C 451.889 656.975, 453.601 659, 453.355 659 C 453.110 659, 454.034 660.125, 455.409 661.500 C 456.784 662.875, 458.187 664, 458.526 664 C 459.664 664, 461.912 666.755, 461.286 667.381 C 460.945 667.721, 461.143 668, 461.725 668 C 462.307 668, 463.066 669.125, 463.411 670.500 C 463.756 671.875, 464.705 673, 465.519 673 C 466.334 673, 467 673.450, 467 674 C 467 674.550, 467.723 675, 468.607 675 C 469.599 675, 470.001 675.554, 469.658 676.449 C 469.286 677.418, 469.582 677.714, 470.551 677.342 C 471.348 677.036, 472 677.280, 472 677.884 C 472 678.488, 473.283 680.224, 474.852 681.741 C 476.420 683.259, 477.508 685.063, 477.268 685.751 C 477 686.522, 477.403 686.783, 478.319 686.431 C 479.273 686.065, 480.453 686.959, 481.618 688.930 C 482.615 690.619, 483.965 692, 484.617 692 C 485.745 692, 489.988 698.216, 489.916 699.765 C 489.897 700.169, 490.917 700.744, 492.183 701.043 C 493.449 701.342, 494.987 702.596, 495.602 703.829 C 496.217 705.063, 498.133 707.333, 499.860 708.875 C 501.587 710.417, 503 712.201, 503 712.839 C 503 713.478, 503.381 714, 503.847 714 C 505.167 714, 508.556 717.254, 509.924 719.836 C 511.754 723.288, 512.410 721.761, 512.782 713.192 C 513.679 692.540, 513.489 681.921, 512.208 681.129 C 511.269 680.548, 511.084 678.717, 511.531 674.415 C 511.869 671.162, 512.225 665.464, 512.323 661.752 C 512.420 658.041, 512.826 655.004, 513.225 655.002 C 513.624 655.001, 513.508 653.837, 512.968 652.416 C 512.428 650.995, 512.240 649.420, 512.552 648.916 C 512.863 648.412, 512.725 648, 512.246 648 C 510.996 648, 510.642 637.860, 511.086 614.750 C 511.246 606.415, 511.706 601.995, 512.415 601.985 C 513.144 601.974, 513.163 601.729, 512.471 601.235 C 511.905 600.831, 511.374 596.675, 511.290 592 C 511.126 582.876, 510.630 578.828, 509.440 576.903 C 508.964 576.133, 509.111 575.950, 509.842 576.403 C 510.694 576.929, 510.730 576.420, 509.983 574.454 C 509.397 572.913, 509.249 568.789, 509.631 564.647 C 510.664 553.466, 510.221 541, 508.792 541 C 508.363 541, 508.240 539.313, 508.519 537.250 C 509.917 526.914, 510.285 523.263, 510.185 520.714 C 510.124 519.182, 510.396 518.125, 510.787 518.366 C 511.179 518.606, 511.548 517.498, 511.606 515.902 C 511.665 514.306, 511.389 513, 510.994 513 C 510.599 513, 510.408 511.789, 510.570 510.309 C 510.733 508.829, 510.394 506.736, 509.817 505.657 C 508.920 503.983, 509.031 503.798, 510.578 504.391 C 512.239 505.029, 512.260 504.939, 510.826 503.293 C 509.655 501.949, 509.341 499.748, 509.570 494.500 C 510.040 483.724, 510.868 475.023, 511.524 473.961 C 511.851 473.432, 511.707 473, 511.204 473 C 510.164 473, 510.409 462.765, 511.492 461.013 C 512.515 459.357, 512.768 448.117, 511.874 444 C 510.551 437.902, 510.220 427.180, 511.321 426.079 C 512.832 424.568, 513.232 406, 511.754 406 C 510.914 406, 510.900 405.700, 511.701 404.899 C 512.357 404.243, 512.506 402.728, 512.070 401.149 C 511.263 398.234, 511.291 387.045, 512.108 385.484 C 512.391 384.943, 512.549 379.100, 512.458 372.500 C 512.367 365.833, 512.734 359.937, 513.283 359.233 C 514.520 357.650, 513.464 346.566, 511.564 341.181 C 510.500 338.166, 510.446 336.931, 511.335 335.968 C 512.085 335.156, 512.106 334.927, 511.392 335.324 C 510.644 335.742, 510.306 334.329, 510.351 330.971 C 510.388 328.237, 510.661 326, 510.959 325.999 C 511.256 325.999, 511.596 323.861, 511.713 321.249 C 511.831 318.637, 512.162 314.104, 512.451 311.176 C 512.817 307.451, 512.508 304.949, 511.421 302.848 C 509.490 299.113, 509.079 295.258, 510.267 292 C 511.723 288.004, 512.183 285.794, 512.557 281 C 512.750 278.525, 513.107 274.934, 513.350 273.020 C 513.600 271.049, 513.219 268.723, 512.471 267.655 C 511.745 266.619, 511.377 265.182, 511.652 264.463 C 511.928 263.744, 511.673 262.257, 511.085 261.159 C 510.292 259.677, 510.336 259.012, 511.258 258.581 C 512.247 258.118, 512.247 257.882, 511.259 257.420 C 510.328 256.984, 510.424 256.433, 511.643 255.214 C 512.718 254.140, 512.882 253.461, 512.128 253.209 C 511.501 253, 511.249 252.406, 511.569 251.889 C 511.889 251.371, 512.159 246.347, 512.169 240.724 C 512.180 235.101, 512.651 229.938, 513.216 229.250 C 513.823 228.512, 513.855 228, 513.293 228 C 512.043 228, 512.212 223.711, 513.500 222.765 C 514.124 222.307, 514.042 222.025, 513.281 222.015 C 512.611 222.007, 512.321 221.328, 512.636 220.506 C 512.952 219.684, 513.657 219.288, 514.205 219.626 C 514.808 219.999, 514.781 219.459, 514.135 218.252 C 513.549 217.158, 513.367 215.966, 513.731 215.603 C 514.636 214.697, 514.324 200.333, 513.365 198.781 C 512.939 198.092, 512.736 195.947, 512.915 194.014 C 513.093 192.081, 513.354 188.925, 513.495 187 C 513.637 185.075, 513.845 183.500, 513.959 183.500 C 514.073 183.500, 514.363 181.250, 514.603 178.500 C 514.843 175.750, 515.520 170.469, 516.108 166.765 C 516.695 163.060, 517.098 159.736, 517.002 159.377 C 516.907 159.017, 517.363 158.394, 518.015 157.991 C 518.667 157.588, 519.200 155.625, 519.200 153.629 C 519.200 150.929, 519.623 149.996, 520.850 149.985 C 522.281 149.971, 522.301 149.841, 521 149 C 520 148.354, 519.917 148.026, 520.750 148.015 C 521.474 148.006, 522 146.713, 522 144.941 C 522 143.156, 522.417 142.139, 523 142.500 C 523.550 142.840, 524 142.416, 524 141.559 C 524 140.702, 524.436 140, 524.969 140 C 525.501 140, 525.672 139.308, 525.347 138.463 C 525.023 137.617, 525.557 136.042, 526.534 134.963 C 527.511 133.883, 527.985 133, 527.587 133 C 527.189 133, 527.721 131.762, 528.769 130.250 C 529.817 128.738, 531.025 126.600, 531.454 125.500 C 532.042 123.991, 532.362 123.850, 532.759 124.927 C 533.083 125.808, 533.709 125.042, 534.392 122.927 C 535.005 121.031, 536.512 119.056, 537.764 118.507 C 539.009 117.961, 539.810 116.948, 539.545 116.257 C 539.279 115.563, 539.796 115, 540.698 115 C 541.597 115, 542.037 114.704, 541.675 114.342 C 540.806 113.472, 542.991 110.876, 544.044 111.527 C 544.494 111.805, 545.187 111.506, 545.585 110.862 C 546.037 110.131, 545.876 109.959, 545.155 110.405 C 544.520 110.797, 544 110.641, 544 110.059 C 544 109.477, 544.401 109, 544.892 109 C 545.382 109, 546.065 107.878, 546.409 106.506 C 546.753 105.134, 547.365 104.058, 547.768 104.114 C 549.321 104.331, 553 102.721, 553 101.824 C 553 101.306, 553.337 101.088, 553.750 101.339 C 554.163 101.591, 556.075 100.433, 558 98.766 C 559.925 97.100, 560.938 96.047, 560.250 96.427 C 559.563 96.807, 559 96.641, 559 96.059 C 559 95.477, 559.450 95, 560 95 C 560.550 95, 561 94.298, 561 93.441 C 561 92.584, 561.450 92.160, 562 92.500 C 562.579 92.858, 563 91.893, 563 90.206 C 563 86.975, 564.242 87.196, 545 87 C 541.425 86.963, 535.692 86.581, 532.260 86.151 C 528.828 85.721, 525.475 85.707, 524.808 86.119 C 524.141 86.531, 523.151 86.593, 522.607 86.257 C 522.064 85.922, 518.668 85.548, 515.060 85.428 C 511.452 85.307, 507.159 84.987, 505.520 84.717 C 503.881 84.446, 501.548 84.601, 500.336 85.062 C 499.125 85.523, 497.991 85.522, 497.817 85.059 C 497.642 84.597, 495.376 84.546, 492.779 84.946 C 489.673 85.425, 487.904 85.302, 487.608 84.587 C 487.315 83.880, 487.130 83.918, 487.079 84.698 C 487.020 85.587, 486.244 85.632, 484.071 84.875 C 482.130 84.198, 480.519 84.187, 479.295 84.842 C 478.163 85.448, 476.819 85.478, 475.822 84.920 C 474.928 84.420, 472.136 84.204, 469.617 84.440 C 467.098 84.676, 464.798 84.482, 464.505 84.008 C 464.210 83.532, 462.529 83.562, 460.737 84.075 C 458.627 84.681, 457.384 84.653, 457.165 83.995 C 456.980 83.441, 456.340 83.290, 455.741 83.660 C 454.319 84.539, 449 84.689, 449 83.850 C 449 83.492, 447.203 83.267, 445.006 83.350 C 442.809 83.432, 441.009 83.725, 441.006 84 C 441.003 84.275, 439.425 84.500, 437.500 84.500 C 435.575 84.500, 434 84.205, 434 83.844 C 434 83.483, 433.100 83.423, 432 83.710 C 430.900 83.998, 430 83.762, 430 83.186 C 430 82.486, 428.950 82.441, 426.828 83.049 C 425.083 83.550, 423.171 83.599, 422.578 83.158 C 421.985 82.718, 420.712 82.535, 419.750 82.752 M 651.362 121.779 C 651.606 122.176, 648.137 122.514, 643.653 122.531 C 634.086 122.567, 623 124.712, 623 126.528 C 623 127.218, 621.839 128.075, 620.419 128.431 C 617.431 129.181, 611.428 132.904, 605 137.992 C 602.525 139.952, 599.231 142.198, 597.680 142.984 C 593.814 144.943, 589.894 149.020, 590.670 150.275 C 591.041 150.875, 590.821 151.008, 590.147 150.591 C 589.475 150.175, 588.704 150.636, 588.316 151.687 C 587.947 152.684, 587.252 153.766, 586.770 154.092 C 586.289 154.417, 585.719 156.073, 585.504 157.771 C 585.289 159.469, 584.242 162.578, 583.177 164.679 C 576.337 178.179, 575.033 183.024, 574.475 197.010 C 574.179 204.429, 573.900 214.668, 573.854 219.762 C 573.808 224.856, 573.400 229.253, 572.947 229.533 C 572.494 229.813, 572.311 231.018, 572.540 232.210 C 572.770 233.402, 572.327 235.643, 571.556 237.189 C 570.784 238.735, 570.558 240, 571.052 240 C 571.546 240, 571.609 241.012, 571.192 242.250 C 570.775 243.488, 570.589 246.750, 570.779 249.500 C 570.969 252.250, 571.177 257.762, 571.240 261.750 C 571.304 265.738, 571.694 269, 572.108 269 C 572.522 269, 572.525 270.237, 572.116 271.750 C 571.706 273.262, 571.448 275.962, 571.543 277.750 C 571.637 279.538, 571.302 281, 570.797 281 C 570.291 281, 570.181 282.457, 570.551 284.250 C 571.634 289.490, 572.062 313.218, 571.095 314.409 C 570.389 315.280, 570.265 325.500, 570.960 325.500 C 571.062 325.500, 571.254 328.776, 571.388 332.780 C 571.546 337.526, 572.130 340.537, 573.065 341.434 C 573.854 342.190, 577.643 343.115, 581.485 343.491 C 585.327 343.866, 588.865 344.417, 589.347 344.715 C 589.829 345.012, 590.616 344.636, 591.096 343.878 C 591.743 342.857, 591.973 342.828, 591.985 343.766 C 592.002 345.185, 597.388 345.201, 600.250 343.791 C 601.212 343.317, 602 343.297, 602 343.747 C 602 344.196, 603.150 344.659, 604.555 344.775 C 606.187 344.910, 606.866 344.592, 606.434 343.894 C 605.958 343.124, 606.312 343.093, 607.629 343.789 C 608.658 344.333, 611.863 344.716, 614.751 344.639 C 617.639 344.563, 620.001 344.742, 620.001 345.037 C 620 345.333, 622.025 345.607, 624.500 345.646 C 626.975 345.686, 629 345.305, 629 344.800 C 629 344.295, 629.563 344.246, 630.250 344.691 C 631.401 345.436, 635.986 345.945, 641.896 345.983 C 643.214 345.991, 644.852 346.462, 645.535 347.029 C 646.348 347.703, 648.183 347.744, 650.839 347.147 C 653.073 346.645, 655.131 346.464, 655.412 346.745 C 655.693 347.026, 657.852 347.412, 660.211 347.603 C 678.396 349.075, 681 349.128, 681 348.029 C 681 347.398, 681.419 347.141, 681.931 347.457 C 682.443 347.774, 683.132 347.595, 683.463 347.060 C 683.794 346.525, 684.725 346.341, 685.532 346.651 C 686.339 346.960, 687 346.660, 687 345.982 C 687 345.115, 687.963 344.957, 690.250 345.450 C 693.622 346.175, 699.715 347.008, 703.937 347.320 C 705.759 347.454, 706.555 346.868, 707.088 345 C 707.480 343.625, 707.845 342.853, 707.900 343.285 C 707.955 343.717, 708.935 343.570, 710.078 342.958 C 711.220 342.347, 711.920 341.235, 711.634 340.488 C 711.347 339.741, 711.489 338.988, 711.950 338.815 C 712.411 338.642, 712.438 336.700, 712.009 334.500 L 711.230 330.500 711.115 334.203 C 711.010 337.596, 710.687 337.993, 707.250 338.947 C 698.996 341.240, 687.744 339.679, 683.037 335.589 C 682.191 334.854, 679.925 333.967, 678 333.618 C 671.833 332.497, 664 328.308, 664 326.130 C 664 324.114, 670.329 317.465, 674.241 315.371 C 676.017 314.421, 676.385 313.451, 676.159 310.321 C 675.650 303.265, 678.589 299.097, 685.225 297.466 C 687.439 296.921, 688.541 297.387, 691.100 299.946 C 693.827 302.673, 694.181 303.613, 693.735 306.936 L 693.220 310.776 698.860 311.197 C 706.462 311.765, 710.319 313.751, 711.124 317.510 C 711.559 319.543, 711.826 319.860, 711.958 318.500 C 712.065 317.400, 712.361 315.600, 712.615 314.500 C 713.331 311.403, 713.577 287, 712.893 287 C 712.115 287, 712.459 281.989, 713.379 279.922 C 713.766 279.055, 713.642 277.189, 713.105 275.775 C 712.567 274.362, 712.384 272.949, 712.698 272.636 C 713.252 272.081, 713.227 267.819, 712.561 249.736 C 712.383 244.915, 712.572 240.764, 712.982 240.511 C 713.391 240.258, 713.600 238.465, 713.446 236.526 C 713.292 234.587, 713.576 233, 714.077 233 C 715.103 233, 714.260 218.833, 713.185 218.019 C 712.240 217.303, 712.340 210.781, 713.319 209.250 C 713.759 208.563, 713.864 207.588, 713.553 207.085 C 713.242 206.582, 713.553 205.907, 714.244 205.585 C 715.240 205.121, 715.243 204.880, 714.258 204.419 C 713.358 203.999, 713.298 203.312, 714.040 201.926 C 715.126 199.895, 715.044 193, 713.933 193 C 712.983 193, 713.607 188.603, 714.901 186.185 C 715.642 184.800, 715.670 183.914, 714.986 183.492 C 714.426 183.145, 714.268 182.375, 714.636 181.779 C 715.004 181.184, 714.476 180.090, 713.462 179.348 C 712.447 178.607, 712.041 177.993, 712.559 177.985 C 713.076 177.976, 712.825 177.533, 712 177 C 711.149 176.450, 711.003 176.024, 711.663 176.015 C 712.788 176.001, 712.638 175.186, 710.185 168 C 709.455 165.862, 709.267 165.140, 709.125 163.941 C 709.056 163.359, 708.480 163.203, 707.845 163.595 C 707.199 163.995, 706.960 163.874, 707.302 163.320 C 708.093 162.040, 704.114 153.981, 702.358 153.307 C 701.617 153.023, 701.247 152.410, 701.534 151.945 C 701.821 151.481, 701.110 150.594, 699.954 149.975 C 698.798 149.357, 694.300 145.580, 689.959 141.582 C 682.407 134.628, 672.662 128.394, 666.714 126.712 C 665.008 126.230, 664.200 125.486, 664.628 124.792 C 665.092 124.041, 664.750 123.882, 663.611 124.319 C 662.573 124.717, 661.116 124.255, 659.931 123.151 C 658.094 121.439, 650.393 120.207, 651.362 121.779 M 367.701 136.250 C 365.053 138.074, 363.100 140.158, 363.250 141 C 363.573 142.821, 369.409 143.584, 371.226 142.043 C 371.927 141.449, 373.545 140.103, 374.823 139.051 C 376.757 137.459, 376.960 136.794, 376.037 135.070 C 374.535 132.263, 373.218 132.450, 367.701 136.250 M 390.548 141.923 C 390.234 142.431, 388.632 143.142, 386.989 143.503 C 385.345 143.864, 383.990 144.686, 383.978 145.329 C 383.966 145.973, 382.504 147.175, 380.728 148 C 378.739 148.924, 377.377 150.364, 377.180 151.750 C 376.886 153.826, 377.247 154, 381.871 154 C 384.627 154, 387.175 153.526, 387.533 152.947 C 387.890 152.368, 388.696 152.065, 389.322 152.274 C 389.948 152.483, 391.590 151.607, 392.970 150.327 C 394.350 149.047, 396.020 148, 396.681 148 C 399.086 148, 399.049 145.958, 396.599 143.508 C 394.026 140.935, 391.558 140.288, 390.548 141.923 M 339.500 164.450 C 330.015 169.710, 328.233 171.158, 326.494 175.012 C 325.505 177.206, 324.315 179, 323.848 179 C 323.382 179, 323 180.260, 323 181.800 C 323 183.340, 322.621 185.028, 322.159 185.550 C 321.696 186.072, 320.323 189.524, 319.108 193.221 C 317.396 198.427, 317.143 200.399, 317.984 201.971 C 318.582 203.087, 319.553 204, 320.144 204 C 320.772 204, 320.971 204.978, 320.625 206.360 C 320.214 207.995, 320.652 209.280, 322.051 210.547 C 323.162 211.552, 323.850 212.949, 323.580 213.651 C 323.311 214.353, 326.422 218.347, 330.494 222.527 C 336.792 228.991, 338.181 229.973, 339.796 229.109 C 341.017 228.456, 342.038 228.438, 342.660 229.060 C 343.282 229.682, 344.768 229.628, 346.829 228.910 C 348.591 228.296, 351.825 227.964, 354.016 228.173 C 357.309 228.487, 358 228.245, 358 226.776 C 358 225.481, 358.789 225, 360.911 225 C 362.949 225, 364.617 224.055, 366.473 221.850 C 368.157 219.849, 370.104 218.664, 371.812 218.600 C 374.082 218.516, 374.506 218.047, 374.539 215.584 C 374.566 213.594, 375.256 212.365, 376.711 211.716 C 378.299 211.007, 379.048 209.450, 379.637 205.632 C 380.731 198.550, 380.720 198.463, 378.750 198.794 C 377.712 198.968, 377 198.459, 377 197.544 C 377 196.695, 377.675 196, 378.500 196 C 380.392 196, 380.450 194.356, 378.596 193.300 C 376.959 192.368, 376.348 187.358, 377.532 184.572 C 378.143 183.132, 377.800 182.279, 376.175 181.200 C 374.979 180.406, 374 179.230, 374 178.588 C 374 176.813, 366.585 169, 364.901 169 C 363.272 169, 356.729 165.850, 354.479 163.983 C 351.827 161.782, 343.862 162.030, 339.500 164.450 M 347.500 183.964 C 346.400 184.429, 344.520 184.587, 343.322 184.315 C 341.649 183.934, 340.775 184.535, 339.547 186.910 C 338.668 188.609, 337.601 190, 337.175 190 C 335.131 190, 333.550 199.884, 335.313 201.646 C 335.691 202.024, 336 203.524, 336 204.979 C 336 207.937, 340.568 212, 343.894 212 C 344.981 212, 347.087 212.463, 348.575 213.029 C 350.666 213.824, 351.760 213.708, 353.391 212.518 C 354.551 211.671, 357.124 209.893, 359.110 208.565 C 363.412 205.689, 364.492 201.870, 362.797 195.529 C 360.567 187.193, 353.142 181.579, 347.500 183.964 M 266.333 211.574 C 265.927 212.632, 264.987 212.963, 263.469 212.582 C 261.934 212.196, 261.010 212.533, 260.589 213.629 C 260.138 214.805, 259.189 215.088, 257.100 214.670 C 254.671 214.184, 253.524 214.794, 249.616 218.647 C 247.077 221.150, 245 223.908, 245 224.776 C 245 225.644, 243.580 227.540, 241.844 228.989 C 239.041 231.329, 238.652 232.300, 238.358 237.681 C 238.063 243.093, 238.346 244.178, 241.014 247.861 C 242.656 250.128, 244 252.386, 244 252.878 C 244 254.827, 250.620 263.933, 252.500 264.571 C 253.600 264.945, 257.131 266.780, 260.348 268.651 C 265.921 271.892, 266.665 272.053, 276.201 272.087 C 283.904 272.115, 286.604 271.763, 287.932 270.561 C 288.881 269.703, 290.414 269, 291.338 269 C 292.262 269, 294.442 267.639, 296.183 265.975 C 297.924 264.312, 300.507 262.699, 301.924 262.392 C 303.341 262.084, 304.998 261.684, 305.607 261.503 C 307.209 261.025, 306.273 241.586, 304.380 236 C 302.510 230.484, 299.942 226.234, 296.562 223.059 C 295.153 221.735, 294 220.085, 294 219.393 C 294 217.925, 290.481 216.585, 289.011 217.493 C 288.457 217.835, 286.766 217.469, 285.252 216.680 C 279.281 213.564, 277.150 212.790, 276.186 213.385 C 274.711 214.297, 272 213.006, 272 211.393 C 272 209.453, 267.087 209.610, 266.333 211.574 M 208.648 217.760 C 208.227 218.442, 207.046 219, 206.024 219 C 205.003 219, 204.017 219.338, 203.833 219.750 C 203.650 220.162, 201.571 221.755, 199.214 223.288 C 192.459 227.682, 195.218 229.425, 203.995 226.308 C 209.415 224.383, 210.905 222.580, 210.027 219.010 C 209.613 217.326, 209.167 216.921, 208.648 217.760 M 205.599 233.983 C 198.235 241.491, 196.606 244.396, 198.269 247.059 C 199.822 249.546, 202.635 249.550, 203.964 247.068 C 204.533 246.005, 205.877 244.856, 206.952 244.515 C 208.027 244.174, 210.552 241.654, 212.562 238.916 C 215.946 234.306, 216.125 233.717, 214.987 230.969 C 214.311 229.336, 213.242 228, 212.613 228 C 211.983 228, 208.827 230.692, 205.599 233.983 M 268.305 229.601 C 261.987 231.218, 256.338 234.473, 258.032 235.520 C 258.807 235.999, 259.052 237.843, 258.726 240.739 C 257.957 247.561, 259.433 251.503, 263.475 253.421 C 265.367 254.319, 267.154 255.440, 267.446 255.913 C 268.312 257.315, 274.826 258.164, 276.762 257.127 C 277.905 256.516, 279.175 256.518, 280.276 257.134 C 281.602 257.877, 282 257.718, 282 256.445 C 282 255.535, 283.352 252.787, 285.005 250.338 C 288.216 245.579, 288.245 243.036, 285.144 238 C 282.770 234.144, 277.725 229.350, 275.455 228.795 C 274.331 228.520, 271.113 228.883, 268.305 229.601 M 676.694 320.639 C 675.761 321.573, 676.888 323, 678.559 323 C 679.352 323, 680 322.325, 680 321.500 C 680 319.994, 677.889 319.444, 676.694 320.639 M 650 324.500 C 650 325.611, 651.167 326, 654.500 326 C 659.254 326, 660.540 324.646, 656.750 323.630 C 652.781 322.567, 650 322.925, 650 324.500 M 656.443 329.418 C 655.376 330.198, 654.838 331.171, 655.247 331.581 C 656.192 332.525, 661 330.386, 661 329.021 C 661 327.561, 658.709 327.761, 656.443 329.418"
          fill="#f2f2f2"
          stroke="#000000"
          stroke-width="5"
          stroke-linejoin="round"
          stroke-linecap="round"/>
    <path d="M 367.701 136.250 C 365.053 138.074, 363.100 140.158, 363.250 141 C 363.573 142.821, 369.409 143.584, 371.226 142.043 C 371.927 141.449, 373.545 140.103, 374.823 139.051 C 376.757 137.459, 376.960 136.794, 376.037 135.070 C 374.535 132.263, 373.218 132.450, 367.701 136.250 M 390.548 141.923 C 390.234 142.431, 388.632 143.142, 386.989 143.503 C 385.345 143.864, 383.990 144.686, 383.978 145.329 C 383.966 145.973, 382.504 147.175, 380.728 148 C 378.739 148.924, 377.377 150.364, 377.180 151.750 C 376.886 153.826, 377.247 154, 381.871 154 C 384.627 154, 387.175 153.526, 387.533 152.947 C 387.890 152.368, 388.696 152.065, 389.322 152.274 C 389.948 152.483, 391.590 151.607, 392.970 150.327 C 394.350 149.047, 396.020 148, 396.681 148 C 399.086 148, 399.049 145.958, 396.599 143.508 C 394.026 140.935, 391.558 140.288, 390.548 141.923 M 386.038 148.102 C 384.134 149.696, 383.085 151, 383.707 151 C 385.218 151, 390.986 147.683, 390.994 146.809 C 391.010 144.990, 389.187 145.466, 386.038 148.102 M 339.500 164.450 C 330.015 169.710, 328.233 171.158, 326.494 175.012 C 325.505 177.206, 324.315 179, 323.848 179 C 323.382 179, 323 180.260, 323 181.800 C 323 183.340, 322.621 185.028, 322.159 185.550 C 321.696 186.072, 320.323 189.524, 319.108 193.221 C 317.396 198.427, 317.143 200.399, 317.984 201.971 C 318.582 203.087, 319.553 204, 320.144 204 C 320.772 204, 320.971 204.978, 320.625 206.360 C 320.214 207.995, 320.652 209.280, 322.051 210.547 C 323.162 211.552, 323.850 212.949, 323.580 213.651 C 323.311 214.353, 326.422 218.347, 330.494 222.527 C 336.792 228.991, 338.181 229.973, 339.796 229.109 C 341.017 228.456, 342.038 228.438, 342.660 229.060 C 343.282 229.682, 344.768 229.628, 346.829 228.910 C 348.591 228.296, 351.825 227.964, 354.016 228.173 C 357.309 228.487, 358 228.245, 358 226.776 C 358 225.481, 358.789 225, 360.911 225 C 362.949 225, 364.617 224.055, 366.473 221.850 C 368.157 219.849, 370.104 218.664, 371.812 218.600 C 374.082 218.516, 374.506 218.047, 374.539 215.584 C 374.566 213.594, 375.256 212.365, 376.711 211.716 C 378.299 211.007, 379.048 209.450, 379.637 205.632 C 380.731 198.550, 380.720 198.463, 378.750 198.794 C 377.712 198.968, 377 198.459, 377 197.544 C 377 196.695, 377.675 196, 378.500 196 C 380.392 196, 380.450 194.356, 378.596 193.300 C 376.959 192.368, 376.348 187.358, 377.532 184.572 C 378.143 183.132, 377.800 182.279, 376.175 181.200 C 374.979 180.406, 374 179.230, 374 178.588 C 374 176.813, 366.585 169, 364.901 169 C 363.272 169, 356.729 165.850, 354.479 163.983 C 351.827 161.782, 343.862 162.030, 339.500 164.450 M 348 166.498 C 346.545 167.329, 344.218 167.700, 342.435 167.386 C 338.979 166.778, 332.115 170.449, 332.042 172.945 C 332.019 173.740, 330.851 175.590, 329.446 177.056 C 325.432 181.246, 321.029 198.573, 322.922 202.728 C 323.515 204.029, 324 206.212, 324 207.578 C 324 208.945, 324.675 210.322, 325.500 210.638 C 326.325 210.955, 327 212.261, 327 213.540 C 327 214.997, 327.756 216.105, 329.027 216.508 C 330.141 216.862, 331.776 218.254, 332.658 219.601 C 333.734 221.244, 334.855 221.863, 336.058 221.482 C 337.141 221.138, 338.213 221.557, 338.763 222.541 C 339.911 224.592, 352.257 225.165, 356 223.341 C 357.375 222.671, 359.749 221.652, 361.276 221.076 C 362.802 220.501, 364.353 219.236, 364.722 218.265 C 365.091 217.294, 367.247 214.700, 369.513 212.500 C 374.453 207.704, 376.392 203.792, 374.677 202.077 C 373.966 201.366, 373.507 197.504, 373.505 192.205 C 373.501 185.302, 373.143 183.144, 371.775 181.776 C 370.827 180.827, 369.766 178.914, 369.417 177.525 C 369.024 175.959, 368.078 175, 366.927 175 C 365.906 175, 364.589 174.100, 364 173 C 363.411 171.900, 362.045 171, 360.965 171 C 359.884 171, 359 170.559, 359 170.019 C 359 169.480, 357.893 168.760, 356.541 168.421 C 355.189 168.081, 353.558 167.173, 352.919 166.402 C 351.499 164.691, 351.154 164.698, 348 166.498 M 338.166 184.033 C 337.260 185.612, 335.502 187.159, 334.259 187.471 C 332.664 187.871, 331.952 188.841, 331.838 190.769 C 331.748 192.271, 331.562 195.300, 331.424 197.500 C 331.269 199.970, 331.751 202.145, 332.684 203.187 C 333.516 204.115, 333.925 205.312, 333.595 205.847 C 331.610 209.058, 339.665 214.439, 348.020 215.483 C 352.913 216.095, 353.757 215.925, 355.517 213.980 C 356.608 212.774, 359.188 210.926, 361.250 209.873 C 363.313 208.821, 365.035 207.631, 365.077 207.230 C 365.119 206.828, 365.366 204.599, 365.625 202.276 C 366.383 195.490, 362.185 185.240, 357.657 182.816 C 356.524 182.210, 352.046 181.590, 347.706 181.438 C 339.946 181.167, 339.787 181.210, 338.166 184.033 M 347.500 183.964 C 346.400 184.429, 344.520 184.587, 343.322 184.315 C 341.649 183.934, 340.775 184.535, 339.547 186.910 C 338.668 188.609, 337.601 190, 337.175 190 C 335.131 190, 333.550 199.884, 335.313 201.646 C 335.691 202.024, 336 203.524, 336 204.979 C 336 207.937, 340.568 212, 343.894 212 C 344.981 212, 347.087 212.463, 348.575 213.029 C 350.666 213.824, 351.760 213.708, 353.391 212.518 C 354.551 211.671, 357.124 209.893, 359.110 208.565 C 363.412 205.689, 364.492 201.870, 362.797 195.529 C 360.567 187.193, 353.142 181.579, 347.500 183.964 M 266.333 211.574 C 265.927 212.632, 264.987 212.963, 263.469 212.582 C 261.934 212.196, 261.010 212.533, 260.589 213.629 C 260.138 214.805, 259.189 215.088, 257.100 214.670 C 254.671 214.184, 253.524 214.794, 249.616 218.647 C 247.077 221.150, 245 223.908, 245 224.776 C 245 225.644, 243.580 227.540, 241.844 228.989 C 239.041 231.329, 238.652 232.300, 238.358 237.681 C 238.063 243.093, 238.346 244.178, 241.014 247.861 C 242.656 250.128, 244 252.386, 244 252.878 C 244 254.827, 250.620 263.933, 252.500 264.571 C 253.600 264.945, 257.131 266.780, 260.348 268.651 C 265.921 271.892, 266.665 272.053, 276.201 272.087 C 283.904 272.115, 286.604 271.763, 287.932 270.561 C 288.881 269.703, 290.414 269, 291.338 269 C 292.262 269, 294.442 267.639, 296.183 265.975 C 297.924 264.312, 300.507 262.699, 301.924 262.392 C 303.341 262.084, 304.998 261.684, 305.607 261.503 C 307.209 261.025, 306.273 241.586, 304.380 236 C 302.510 230.484, 299.942 226.234, 296.562 223.059 C 295.153 221.735, 294 220.085, 294 219.393 C 294 217.925, 290.481 216.585, 289.011 217.493 C 288.457 217.835, 286.766 217.469, 285.252 216.680 C 279.281 213.564, 277.150 212.790, 276.186 213.385 C 274.711 214.297, 272 213.006, 272 211.393 C 272 209.453, 267.087 209.610, 266.333 211.574 M 260.500 217.081 C 258.850 217.581, 256.966 217.792, 256.312 217.550 C 255.120 217.109, 247 224.522, 247 226.051 C 247 226.500, 245.590 229.135, 243.867 231.907 C 240.811 236.823, 240.777 237.010, 242.457 239.575 C 243.405 241.021, 243.938 243.130, 243.642 244.261 C 243.324 245.476, 243.901 247.330, 245.052 248.793 C 246.123 250.155, 247 251.817, 247 252.485 C 247 254.640, 252.574 261.455, 255.581 262.977 C 257.187 263.790, 260.214 265.500, 262.309 266.777 C 265.318 268.612, 267.802 269.153, 274.125 269.349 C 278.528 269.486, 282.328 269.278, 282.570 268.886 C 282.812 268.494, 284.735 267.883, 286.842 267.527 C 289.377 267.098, 291.772 265.715, 293.918 263.440 C 295.703 261.548, 297.721 260, 298.403 260 C 299.879 260, 304 251.294, 304 248.177 C 304 246.975, 303.100 244.314, 302 242.261 C 300.900 240.209, 300 236.870, 300 234.842 C 300 230.985, 296.067 225, 293.534 225 C 292.825 225, 291.685 224.325, 291 223.500 C 290.315 222.675, 288.980 222, 288.033 222 C 287.085 222, 285.467 221.068, 284.436 219.930 C 283.035 218.381, 281.799 217.999, 279.531 218.414 C 277.864 218.718, 274.700 218.320, 272.500 217.528 C 267.951 215.890, 264.815 215.773, 260.500 217.081 M 208.648 217.760 C 208.227 218.442, 207.046 219, 206.024 219 C 205.003 219, 204.017 219.338, 203.833 219.750 C 203.650 220.162, 201.571 221.755, 199.214 223.288 C 192.459 227.682, 195.218 229.425, 203.995 226.308 C 209.415 224.383, 210.905 222.580, 210.027 219.010 C 209.613 217.326, 209.167 216.921, 208.648 217.760 M 269.041 222.975 C 268.245 223.466, 266.290 223.608, 264.696 223.289 C 261.440 222.638, 259.690 224.358, 260.608 227.305 C 261.026 228.647, 260.386 229.406, 258.112 230.264 C 254.496 231.629, 253.602 233.388, 255.100 236.186 C 255.701 237.309, 255.994 239.864, 255.752 241.864 C 255.121 247.086, 256.754 250.913, 261.652 255.688 C 266.198 260.119, 265.794 260.013, 279.500 260.352 L 285.500 260.500 285.536 256.930 C 285.557 254.803, 286.467 252.222, 287.786 250.545 C 290.457 247.149, 290.918 239.290, 288.500 238.362 C 287.675 238.045, 287 237.092, 287 236.244 C 287 234.403, 281.494 228.867, 277.413 226.605 C 275.811 225.717, 273.597 224.336, 272.494 223.535 C 271.196 222.594, 269.978 222.396, 269.041 222.975 M 205.599 233.983 C 198.235 241.491, 196.606 244.396, 198.269 247.059 C 199.822 249.546, 202.635 249.550, 203.964 247.068 C 204.533 246.005, 205.877 244.856, 206.952 244.515 C 208.027 244.174, 210.552 241.654, 212.562 238.916 C 215.946 234.306, 216.125 233.717, 214.987 230.969 C 214.311 229.336, 213.242 228, 212.613 228 C 211.983 228, 208.827 230.692, 205.599 233.983 M 268.305 229.601 C 261.987 231.218, 256.338 234.473, 258.032 235.520 C 258.807 235.999, 259.052 237.843, 258.726 240.739 C 257.957 247.561, 259.433 251.503, 263.475 253.421 C 265.367 254.319, 267.154 255.440, 267.446 255.913 C 268.312 257.315, 274.826 258.164, 276.762 257.127 C 277.905 256.516, 279.175 256.518, 280.276 257.134 C 281.602 257.877, 282 257.718, 282 256.445 C 282 255.535, 283.352 252.787, 285.005 250.338 C 288.216 245.579, 288.245 243.036, 285.144 238 C 282.770 234.144, 277.725 229.350, 275.455 228.795 C 274.331 228.520, 271.113 228.883, 268.305 229.601 M 208 235.500 C 206.810 237.425, 205.214 239, 204.454 239 C 202.982 239, 200.713 242.380, 201.593 243.260 C 203.429 245.095, 213 236.755, 213 233.320 C 213 230.784, 210.146 232.028, 208 235.500 M 683.021 298.116 C 679.943 299.344, 676.990 301.951, 677.030 303.405 C 677.047 304.007, 677.543 303.670, 678.133 302.656 C 680.483 298.613, 686.937 297.487, 691.049 300.402 C 691.901 301.006, 691.538 300.488, 690.243 299.250 C 687.664 296.786, 686.724 296.638, 683.021 298.116 M 692.986 305.250 C 692.979 306.488, 692.701 308.512, 692.370 309.750 C 691.791 311.910, 692.001 311.993, 697.633 311.815 L 703.500 311.630 698.352 311.266 L 693.203 310.903 693.733 306.951 C 694.025 304.778, 693.979 303, 693.632 303 C 693.284 303, 692.994 304.012, 692.986 305.250 M 676.132 309.604 C 676.370 313.476, 676.068 314.393, 674.229 315.378 C 670.327 317.466, 664 324.117, 664 326.130 C 664 328.308, 671.833 332.497, 678 333.618 C 679.925 333.967, 682.191 334.854, 683.037 335.589 C 687.744 339.679, 698.996 341.240, 707.250 338.947 L 711 337.906 711 326.653 C 711 315.708, 710.302 312.951, 707.550 313.030 C 706.972 313.047, 707.288 313.519, 708.250 314.080 C 709.747 314.952, 710 316.671, 710 325.952 L 710 336.804 706.851 337.902 C 699.474 340.474, 688.990 338.817, 683.786 334.257 C 682.843 333.431, 680.005 332.369, 677.478 331.897 C 671.818 330.840, 665.998 328.159, 665.276 326.277 C 664.598 324.511, 670.513 318.191, 674.429 316.497 C 677.103 315.340, 677.364 314.785, 677.432 310.115 C 677.473 307.302, 677.133 305, 676.678 305 C 676.222 305, 675.976 307.072, 676.132 309.604 M 676 319.906 C 676 320.405, 676.900 320.577, 678 320.290 C 679.432 319.915, 680 320.259, 680 321.500 C 680 322.757, 679.435 323.085, 677.943 322.695 C 676.688 322.367, 676.030 322.590, 676.255 323.266 C 676.870 325.110, 678.672 325.185, 680.418 323.439 C 681.695 322.163, 681.807 321.472, 680.912 320.394 C 679.627 318.846, 676 318.486, 676 319.906 M 650 324.509 C 650 325.670, 651.039 325.959, 654.495 325.759 C 659.373 325.478, 660.317 324.586, 656.750 323.630 C 652.770 322.564, 650 322.924, 650 324.509 M 656.443 329.418 C 655.376 330.198, 654.838 331.171, 655.247 331.581 C 656.192 332.525, 661 330.386, 661 329.021 C 661 327.561, 658.709 327.761, 656.443 329.418"
          fill="#000000"
          stroke="none"/>
  </g>
</svg>
