<svg xmlns="http://www.w3.org/2000/svg" width="96" height="156" viewBox="183.465 -0.004 506.398 802.141" preserveAspectRatio="none">
  <rect x="183.465" y="-0.004" width="506.398" height="802.141" fill="#000000"/><path d="M 201.492 3.308 C 199.670 5.130, 197.728 8.394, 197.176 10.560 C 196.554 13.004, 195.173 111.888, 193.539 271 C 192.090 412.075, 190.271 584.109, 189.496 653.298 C 188.593 733.891, 188.430 780.001, 189.043 781.613 C 189.569 782.998, 190 785.473, 190 787.115 C 190 795.629, 198.252 801.136, 206.378 798.046 C 207.758 797.522, 229.725 781.410, 255.194 762.243 C 438.084 624.602, 446.042 618.734, 447.810 620.200 C 464.835 634.318, 656.234 791.547, 661.686 795.894 C 669.516 802.137, 678.794 800.985, 682.615 793.294 C 684.879 788.737, 684.899 783.959, 683.748 523 C 682.260 185.718, 681.028 8.267, 680.143 4 L 679.418 0.500 442.111 0.248 L 204.804 -0.004 201.492 3.308 M 496.750 20.750 C 466.589 20.897, 442 21.408, 442 21.887 C 442 22.365, 444.859 25.849, 448.354 29.628 C 457.394 39.405, 464.177 53.658, 473.172 81.778 C 477.382 94.939, 480.774 101, 483.928 101 C 484.933 101, 486.340 101.705, 487.054 102.566 C 488.131 103.863, 488.066 104.618, 486.677 106.970 C 484.243 111.090, 484.531 111.868, 489.250 113.914 C 493.938 115.947, 495.389 118.432, 496.473 126.288 C 497.066 130.585, 497.437 131.137, 500.088 131.668 C 501.712 131.992, 503.286 132.654, 503.585 133.138 C 504.482 134.589, 502.971 138, 501.433 138 C 498.518 138, 500.130 140.665, 504.257 142.670 C 507.385 144.190, 509.115 145.941, 510.778 149.270 C 512.023 151.763, 513.649 154.035, 514.392 154.320 C 515.135 154.605, 516.049 156.059, 516.423 157.551 C 516.798 159.043, 518.093 161.069, 519.302 162.054 L 521.500 163.843 518.626 166.856 L 515.751 169.869 519.172 171.299 C 523.223 172.991, 528.140 178.470, 527.382 180.446 C 527.088 181.212, 527.535 182.887, 528.375 184.169 C 529.215 185.451, 529.895 186.725, 529.887 187 C 529.878 187.275, 530.184 188.316, 530.567 189.314 C 530.950 190.311, 530.766 192.219, 530.158 193.552 C 529.551 194.885, 529.340 196.722, 529.689 197.633 C 530.083 198.659, 529.606 199.815, 528.437 200.669 C 526.833 201.843, 526.739 202.353, 527.811 204.069 C 528.880 205.781, 528.751 206.541, 526.968 209.045 C 525.811 210.670, 524.389 212, 523.809 212 C 523.155 212, 523.227 212.569, 524 213.500 C 524.993 214.697, 524.993 215.303, 524 216.500 C 523.315 217.325, 522.121 218, 521.346 218 C 519.077 218, 518.608 215.091, 520.534 212.963 C 522.245 211.072, 522.233 211, 520.222 211 C 517.945 211, 516.585 213.755, 517.581 216.351 C 518.616 219.049, 514.914 219.756, 513.208 217.186 C 511.819 215.094, 511.675 215.079, 508.884 216.728 C 507.296 217.665, 505.764 219.167, 505.479 220.065 C 504.686 222.565, 500.123 224.347, 498.329 222.858 C 496.507 221.346, 486.926 220.906, 485.237 222.256 C 484.047 223.208, 474.997 221.208, 471.063 219.123 C 470.273 218.704, 467.133 218.752, 464.086 219.230 C 459.893 219.888, 458.297 219.783, 457.523 218.800 C 456.380 217.347, 454.679 217.030, 444.280 216.330 C 438.726 215.956, 436.541 216.208, 434.808 217.422 C 433.569 218.290, 431.488 219, 430.184 219 C 428.707 219, 427.628 219.707, 427.323 220.874 C 426.749 223.067, 421.346 227.332, 420.109 226.568 C 419.643 226.280, 417.650 227.609, 415.680 229.522 C 413.711 231.435, 411.093 233, 409.864 233 C 408.635 233, 406.581 233.984, 405.301 235.187 C 403.505 236.874, 402.702 237.102, 401.787 236.187 C 400.186 234.586, 397 234.679, 397 236.326 C 397 237.847, 392.872 242, 391.360 242 C 390.804 242, 389.292 243.125, 388 244.500 C 386.708 245.875, 384.611 247, 383.339 247 C 381.676 247, 380.645 247.912, 379.668 250.250 C 378.067 254.079, 373.734 256.837, 371.784 255.268 C 370.288 254.063, 364 254.785, 364 256.161 C 364 258.595, 358.576 262.002, 354.604 262.063 C 351.044 262.118, 350.808 262.250, 352.824 263.059 C 355.753 264.233, 355.346 267.376, 352.208 267.824 C 350.201 268.110, 350.011 268.544, 350.578 271.563 C 351.255 275.174, 351.188 275.241, 345.653 276.460 C 343.266 276.985, 342.900 277.466, 343.393 279.429 C 343.760 280.893, 343.422 282.235, 342.490 283.008 C 341.671 283.688, 341 285.101, 341 286.147 C 341 287.261, 339.954 288.447, 338.474 289.010 C 337.085 289.538, 335.645 290.764, 335.273 291.735 C 334.901 292.706, 333.563 295.025, 332.298 296.890 C 331.034 298.754, 330 301.016, 330 301.917 C 330 303.580, 327.603 306.097, 323.037 309.228 C 321.207 310.484, 320.587 311.716, 320.773 313.728 C 320.980 315.961, 320.261 317.039, 317.074 319.272 C 313.843 321.536, 313.061 322.728, 312.809 325.772 C 312.530 329.142, 312.223 329.500, 309.619 329.500 C 307.644 329.500, 306.501 330.135, 305.987 331.518 C 305.574 332.628, 303.853 335.016, 302.162 336.826 C 299.536 339.638, 298.787 339.956, 297.023 339.012 C 295.888 338.405, 294.475 338.206, 293.884 338.572 C 293.293 338.937, 291.698 338.641, 290.340 337.914 C 288.342 336.845, 287.719 336.836, 287.080 337.870 C 285.759 340.009, 279.655 338.854, 278.513 336.250 C 277.970 335.012, 277.206 334, 276.814 334 C 276.423 334, 274.889 332.875, 273.405 331.500 C 271.922 330.125, 270.341 329, 269.893 329 C 269.444 329, 268.598 327.219, 268.011 325.042 C 267.425 322.865, 266.508 320.814, 265.973 320.483 C 265.438 320.153, 265 318.832, 265 317.549 C 265 315.928, 264.276 315.035, 262.627 314.621 C 259.982 313.957, 258.266 310.536, 257.560 304.521 C 257.151 301.028, 255.562 298.727, 252.910 297.786 C 252.466 297.629, 251.968 295.371, 251.802 292.769 C 251.532 288.539, 251.182 287.921, 248.500 286.936 C 243.179 284.983, 242.505 284.354, 242.178 281.030 C 242 279.232, 240.988 276.830, 239.928 275.692 C 238.867 274.554, 238 272.655, 238 271.472 C 238 270.148, 237.039 268.883, 235.500 268.182 C 234.125 267.555, 233 266.406, 233 265.628 C 233 264.850, 231.329 263.548, 229.287 262.733 C 226.237 261.516, 224.943 261.470, 222.037 262.475 L 218.500 263.698 218.276 276.599 C 218.153 283.695, 217.157 381.075, 216.062 493 C 214.968 604.925, 213.815 711.499, 213.501 729.831 C 213.039 756.829, 213.174 763.015, 214.215 762.393 C 221.159 758.242, 433.005 598.054, 434.506 595.819 C 438.178 590.351, 444.621 588.510, 450.092 591.365 C 452.380 592.559, 480.550 615.443, 523.500 650.999 C 536.522 661.780, 555.010 676.956, 571.009 690 C 574.719 693.025, 588.690 704.500, 602.055 715.500 C 615.419 726.500, 633.812 741.635, 642.927 749.133 C 652.042 756.630, 659.645 762.635, 659.823 762.476 C 660.318 762.034, 657.038 88.986, 656.362 52.250 L 655.769 20 603.635 20.241 C 574.961 20.374, 526.862 20.603, 496.750 20.750 M 390.701 73.250 C 388.053 75.074, 386.100 77.158, 386.250 78 C 386.573 79.821, 392.409 80.584, 394.226 79.043 C 394.927 78.449, 396.545 77.103, 397.823 76.051 C 399.757 74.459, 399.960 73.794, 399.037 72.070 C 397.535 69.263, 396.218 69.450, 390.701 73.250 M 412 79.583 C 410.625 80.346, 408.727 80.977, 407.781 80.985 C 406.835 80.993, 406.267 81.562, 406.516 82.250 C 406.767 82.941, 405.523 84.171, 403.735 85 C 401.739 85.926, 400.378 87.361, 400.180 88.750 C 399.886 90.826, 400.247 91, 404.871 91 C 407.627 91, 410.175 90.526, 410.533 89.947 C 410.890 89.368, 411.696 89.065, 412.322 89.274 C 412.948 89.483, 414.590 88.607, 415.970 87.327 C 417.350 86.047, 419.272 85, 420.240 85 C 422.689 85, 422.436 83.345, 419.545 80.455 C 416.801 77.710, 415.621 77.574, 412 79.583 M 362.500 101.450 C 353.015 106.710, 351.233 108.158, 349.494 112.012 C 348.505 114.206, 347.315 116, 346.848 116 C 346.382 116, 346 117.260, 346 118.800 C 346 120.340, 345.621 122.027, 345.159 122.550 C 344.696 123.073, 343.301 126.591, 342.058 130.368 L 339.799 137.237 341.945 140.140 C 343.126 141.736, 343.799 143.517, 343.441 144.095 C 343.083 144.674, 343.785 146.206, 345 147.500 C 346.215 148.794, 346.935 150.296, 346.600 150.839 C 346.264 151.381, 349.344 155.268, 353.444 159.475 C 359.786 165.984, 361.181 166.974, 362.796 166.109 C 364.049 165.439, 365.030 165.430, 365.684 166.084 C 366.338 166.738, 367.656 166.701, 369.564 165.976 C 371.154 165.371, 374.489 164.993, 376.977 165.134 C 380.757 165.349, 381.452 165.113, 381.206 163.696 C 380.989 162.442, 381.628 162, 383.659 162 C 385.397 162, 387.624 160.818, 389.728 158.779 C 391.556 157.007, 394.052 155.545, 395.276 155.529 C 397.040 155.506, 397.564 154.837, 397.810 152.298 C 398.009 150.240, 398.781 148.887, 399.971 148.509 C 401.303 148.086, 402.049 146.458, 402.626 142.711 C 403.732 135.539, 403.722 135.463, 401.750 135.794 C 400.712 135.968, 400 135.459, 400 134.544 C 400 133.695, 400.675 133, 401.500 133 C 403.462 133, 403.410 131.585, 401.386 129.906 C 400.145 128.876, 399.903 127.464, 400.338 123.793 C 400.818 119.742, 400.608 118.861, 398.952 117.974 C 397.878 117.400, 397 116.365, 397 115.675 C 397 113.836, 389.631 106, 387.901 106 C 386.272 106, 379.729 102.850, 377.479 100.983 C 374.827 98.782, 366.862 99.030, 362.500 101.450 M 371 120.975 C 369.625 121.402, 367.520 121.541, 366.322 121.285 C 364.662 120.930, 363.765 121.554, 362.547 123.910 C 361.668 125.609, 360.601 127, 360.175 127 C 359.113 127, 357.135 133.044, 357.388 135.518 C 357.502 136.627, 358.012 138.202, 358.522 139.018 C 359.033 139.833, 359.310 141.352, 359.138 142.393 C 358.758 144.700, 363.596 148.913, 366.685 148.964 C 367.887 148.984, 370.087 149.463, 371.575 150.029 C 373.666 150.824, 374.760 150.708, 376.391 149.518 C 377.551 148.671, 380.124 146.893, 382.110 145.565 C 386.407 142.693, 387.559 138.657, 385.806 132.620 C 384.192 127.062, 380.538 122.383, 376.791 121.077 C 375.092 120.485, 373.656 120.045, 373.601 120.100 C 373.545 120.155, 372.375 120.548, 371 120.975 M 289.333 148.574 C 288.927 149.632, 287.987 149.963, 286.469 149.582 C 284.934 149.196, 284.010 149.533, 283.589 150.629 C 283.138 151.805, 282.189 152.088, 280.100 151.670 C 277.671 151.184, 276.524 151.794, 272.616 155.647 C 270.077 158.150, 268 160.805, 268 161.548 C 268 162.291, 266.578 164.228, 264.839 165.853 C 262.086 168.426, 261.637 169.575, 261.353 174.773 C 261.064 180.080, 261.358 181.194, 264.014 184.861 C 265.656 187.128, 267 189.386, 267 189.878 C 267 192.201, 273.807 200.973, 276.500 202.122 C 278.150 202.826, 281.677 204.673, 284.338 206.227 C 288.757 208.807, 290.043 209.055, 299.191 209.087 C 306.903 209.115, 309.604 208.763, 310.932 207.561 C 311.881 206.703, 313.414 206, 314.338 206 C 315.262 206, 317.442 204.639, 319.183 202.975 C 320.924 201.312, 323.507 199.699, 324.924 199.392 C 326.341 199.084, 327.998 198.684, 328.607 198.503 C 330.189 198.031, 329.284 178.617, 327.424 173.131 C 325.253 166.726, 324.409 165.414, 315.874 155.165 C 315.262 154.430, 313.836 154.071, 312.705 154.367 C 311.573 154.663, 309.489 154.306, 308.074 153.574 C 302.194 150.534, 300.138 149.797, 299.186 150.385 C 297.711 151.297, 295 150.006, 295 148.393 C 295 146.453, 290.087 146.610, 289.333 148.574 M 231.648 154.760 C 231.227 155.442, 230.009 156, 228.941 156 C 227.873 156, 227 156.395, 227 156.879 C 227 157.362, 225.665 158.310, 224.033 158.986 C 220.021 160.648, 218.336 162.736, 219.814 164.214 C 220.654 165.054, 222.328 164.874, 226.331 163.513 C 232.340 161.470, 233.932 159.687, 233.027 156.010 C 232.613 154.326, 232.167 153.921, 231.648 154.760 M 228.599 170.983 C 221.451 178.270, 219.627 181.435, 221.048 184.090 C 222.368 186.557, 225.638 186.545, 226.964 184.068 C 227.533 183.005, 228.877 181.856, 229.952 181.515 C 231.027 181.174, 233.552 178.654, 235.562 175.916 C 238.946 171.306, 239.125 170.717, 237.987 167.969 C 237.311 166.336, 236.242 165, 235.613 165 C 234.983 165, 231.827 167.692, 228.599 170.983 M 290 166.693 C 289.175 166.987, 286.595 168.152, 284.267 169.283 C 280.981 170.878, 280.278 171.631, 281.124 172.650 C 281.723 173.372, 282.020 175.883, 281.782 178.231 C 281.109 184.899, 282.510 188.540, 286.475 190.421 C 288.367 191.319, 290.154 192.440, 290.446 192.913 C 291.378 194.420, 297.875 195.137, 300.050 193.973 C 301.598 193.145, 302.494 193.165, 303.564 194.053 C 304.718 195.011, 305 194.905, 305 193.517 C 305 192.567, 306.338 189.808, 307.973 187.385 C 311.119 182.724, 311.275 178.303, 308.379 175.900 C 307.621 175.270, 307 174.338, 307 173.828 C 307 173.318, 305.492 171.348, 303.649 169.450 C 300.790 166.506, 299.652 166.012, 295.899 166.079 C 293.480 166.122, 290.825 166.399, 290 166.693" stroke="none" fill="#f2f2f2" fill-rule="evenodd"/></svg>