<svg xmlns="http://www.w3.org/2000/svg" width="96" height="156" viewBox="156.793 46.938 399.468 738.975" preserveAspectRatio="none"><path d="M 386 148 C 384.152 149.650, 383.145 151, 383.763 151 C 385.746 151, 392.017 146.836, 391.439 145.902 C 390.539 144.445, 389.557 144.824, 386 148 M 347.252 166.647 C 344.900 167.806, 343.648 167.952, 342.713 167.177 C 341.782 166.404, 340.736 166.497, 338.961 167.513 C 337.607 168.287, 335.488 169.461, 334.250 170.121 C 333.012 170.781, 332 172.070, 332 172.986 C 332 173.902, 330.870 175.713, 329.489 177.011 C 328.108 178.308, 326.500 181.143, 325.917 183.309 C 325.333 185.476, 324.390 188.430, 323.821 189.874 C 322.324 193.674, 321.759 202.733, 322.973 203.483 C 323.538 203.832, 324 205.386, 324 206.937 C 324 208.487, 324.675 210.315, 325.500 211 C 326.325 211.685, 327 213.101, 327 214.147 C 327 215.275, 328.057 216.451, 329.597 217.037 C 331.025 217.580, 332.437 218.955, 332.734 220.093 C 333.099 221.488, 333.863 222.008, 335.081 221.689 C 336.074 221.429, 337.560 221.961, 338.383 222.871 C 342.006 226.874, 363.395 223.031, 364.672 218.147 C 364.909 217.238, 367.286 214.696, 369.953 212.497 C 374.729 208.559, 376.696 204.556, 374.913 202.399 C 373.329 200.483, 372.624 192.158, 373.915 190.603 C 374.756 189.590, 374.783 188.984, 374.008 188.505 C 373.409 188.135, 373.185 186.993, 373.510 185.967 C 373.877 184.811, 373.333 183.333, 372.077 182.077 C 370.962 180.962, 369.766 178.914, 369.417 177.525 C 369.068 176.136, 368.212 175, 367.514 175 C 366.816 175, 365.667 174.304, 364.961 173.453 C 364.255 172.602, 361.284 170.774, 358.358 169.390 C 355.433 168.006, 352.779 166.452, 352.461 165.937 C 351.686 164.683, 351.063 164.768, 347.252 166.647 M 339.128 182.272 C 338.507 182.893, 338 183.960, 338 184.645 C 338 185.330, 336.762 186.487, 335.250 187.215 C 333.673 187.974, 332.474 189.384, 332.438 190.519 C 332.404 191.609, 332.090 193.175, 331.739 194 C 330.765 196.289, 331.381 201.781, 332.766 203.166 C 333.445 203.845, 334 205.432, 334 206.694 C 334 210.242, 340.778 214.617, 347.595 215.469 C 352.698 216.106, 353.455 215.944, 355.856 213.699 C 357.310 212.340, 359.909 210.518, 361.631 209.650 C 364.233 208.338, 364.878 207.300, 365.447 203.502 C 366.479 196.626, 362.786 186.405, 358.179 183.383 C 355.276 181.479, 340.767 180.633, 339.128 182.272 M 261.853 216.464 C 261.497 216.829, 259.808 217.168, 258.099 217.216 C 254.858 217.308, 249.371 221.736, 246.809 226.327 C 240.701 237.270, 240.524 237.816, 242.406 239.897 C 243.547 241.157, 243.945 242.598, 243.521 243.933 C 243.088 245.297, 243.572 246.912, 244.931 248.640 C 246.069 250.086, 247 251.817, 247 252.485 C 247 254.638, 252.573 261.455, 255.581 262.981 C 257.187 263.796, 260.164 265.528, 262.198 266.830 C 265.152 268.721, 267.466 269.245, 273.698 269.435 C 277.989 269.565, 282.175 269.306, 283 268.859 C 283.825 268.412, 286.385 267.576, 288.690 267.001 C 291.296 266.351, 293.104 265.248, 293.473 264.085 C 293.799 263.057, 295.449 261.642, 297.140 260.942 C 299.282 260.055, 300.787 258.331, 302.106 255.252 C 304.492 249.687, 304.491 246.882, 302.100 242.196 C 301.055 240.148, 300.200 236.750, 300.200 234.645 C 300.200 230.035, 297.329 226.660, 290.298 223.007 C 287.659 221.636, 284.725 219.890, 283.777 219.127 C 282.661 218.228, 280.938 217.962, 278.884 218.373 C 277.140 218.722, 275.186 218.569, 274.541 218.034 C 273.093 216.833, 262.742 215.552, 261.853 216.464 M 261.265 224.381 C 260.885 224.995, 260.558 226.383, 260.537 227.464 C 260.517 228.546, 259.600 229.897, 258.500 230.466 C 254.159 232.712, 254.129 232.780, 255.493 237.310 C 256.225 239.744, 256.435 242.259, 255.973 243.083 C 254.541 245.643, 257.243 252.108, 260.698 254.389 C 262.457 255.550, 264.106 257.301, 264.363 258.280 C 264.713 259.621, 265.777 260.037, 268.664 259.966 C 270.774 259.913, 274.860 260.182, 277.745 260.562 C 283.924 261.377, 286.309 260.079, 285.386 256.403 C 284.964 254.720, 285.545 253.141, 287.396 250.941 C 290.694 247.022, 290.989 240.827, 288 238.268 C 286.900 237.326, 286 235.929, 286 235.163 C 286 233.327, 279.119 227.068, 276.332 226.368 C 275.129 226.067, 273.915 225.222, 273.635 224.491 C 273 222.836, 262.279 222.740, 261.265 224.381 M 208 235.500 C 206.810 237.425, 205.214 239, 204.454 239 C 203.693 239, 202.605 239.870, 202.035 240.934 C 200.628 243.565, 200.722 244, 202.699 244 C 204.729 244, 214.226 234.175, 213.434 232.894 C 212.297 231.054, 210.095 232.111, 208 235.500" stroke="none" fill="#fdfdfd" fill-rule="evenodd"/><path d="M 367.701 136.250 C 365.053 138.074, 363.100 140.158, 363.250 141 C 363.573 142.821, 369.409 143.584, 371.226 142.043 C 371.927 141.449, 373.545 140.103, 374.823 139.051 C 376.757 137.459, 376.960 136.794, 376.037 135.070 C 374.535 132.263, 373.218 132.450, 367.701 136.250 M 389 142.583 C 387.625 143.346, 385.727 143.977, 384.781 143.985 C 383.835 143.993, 383.267 144.562, 383.516 145.250 C 383.767 145.941, 382.523 147.171, 380.735 148 C 378.739 148.926, 377.378 150.361, 377.180 151.750 C 376.886 153.826, 377.247 154, 381.871 154 C 384.627 154, 387.175 153.526, 387.533 152.947 C 387.890 152.368, 388.696 152.065, 389.322 152.274 C 389.948 152.483, 391.590 151.607, 392.970 150.327 C 394.350 149.047, 396.272 148, 397.240 148 C 399.689 148, 399.436 146.345, 396.545 143.455 C 393.801 140.710, 392.621 140.574, 389 142.583 M 386 148 C 384.152 149.650, 383.145 151, 383.763 151 C 385.746 151, 392.017 146.836, 391.439 145.902 C 390.539 144.445, 389.557 144.824, 386 148 M 339.500 164.450 C 330.015 169.710, 328.233 171.158, 326.494 175.012 C 325.505 177.206, 324.315 179, 323.848 179 C 323.382 179, 323 180.260, 323 181.800 C 323 183.340, 322.621 185.028, 322.159 185.550 C 321.696 186.072, 320.301 189.591, 319.058 193.368 L 316.799 200.237 318.945 203.140 C 320.126 204.736, 320.799 206.517, 320.441 207.095 C 320.083 207.674, 320.785 209.206, 322 210.500 C 323.215 211.794, 323.935 213.296, 323.600 213.839 C 323.264 214.381, 326.344 218.268, 330.444 222.475 C 336.786 228.984, 338.181 229.974, 339.796 229.109 C 341.049 228.439, 342.030 228.430, 342.684 229.084 C 343.338 229.738, 344.656 229.701, 346.564 228.976 C 348.154 228.371, 351.489 227.993, 353.977 228.134 C 357.757 228.349, 358.452 228.113, 358.206 226.696 C 357.989 225.442, 358.628 225, 360.659 225 C 362.397 225, 364.624 223.818, 366.728 221.779 C 368.556 220.007, 371.052 218.545, 372.276 218.529 C 374.040 218.506, 374.564 217.837, 374.810 215.298 C 375.009 213.240, 375.781 211.887, 376.971 211.509 C 378.303 211.086, 379.049 209.458, 379.626 205.711 C 380.732 198.539, 380.722 198.463, 378.750 198.794 C 377.712 198.968, 377 198.459, 377 197.544 C 377 196.695, 377.675 196, 378.500 196 C 380.462 196, 380.410 194.585, 378.386 192.906 C 377.145 191.876, 376.903 190.464, 377.338 186.793 C 377.818 182.742, 377.608 181.861, 375.952 180.974 C 374.878 180.400, 374 179.365, 374 178.675 C 374 176.836, 366.631 169, 364.901 169 C 363.272 169, 356.729 165.850, 354.479 163.983 C 351.827 161.782, 343.862 162.030, 339.500 164.450 M 347.252 166.647 C 344.900 167.806, 343.648 167.952, 342.713 167.177 C 341.782 166.404, 340.736 166.497, 338.961 167.513 C 337.607 168.287, 335.488 169.461, 334.250 170.121 C 333.012 170.781, 332 172.070, 332 172.986 C 332 173.902, 330.870 175.713, 329.489 177.011 C 328.108 178.308, 326.500 181.143, 325.917 183.309 C 325.333 185.476, 324.390 188.430, 323.821 189.874 C 322.324 193.674, 321.759 202.733, 322.973 203.483 C 323.538 203.832, 324 205.386, 324 206.937 C 324 208.487, 324.675 210.315, 325.500 211 C 326.325 211.685, 327 213.101, 327 214.147 C 327 215.275, 328.057 216.451, 329.597 217.037 C 331.025 217.580, 332.437 218.955, 332.734 220.093 C 333.099 221.488, 333.863 222.008, 335.081 221.689 C 336.074 221.429, 337.560 221.961, 338.383 222.871 C 342.006 226.874, 363.395 223.031, 364.672 218.147 C 364.909 217.238, 367.286 214.696, 369.953 212.497 C 374.729 208.559, 376.696 204.556, 374.913 202.399 C 373.329 200.483, 372.624 192.158, 373.915 190.603 C 374.756 189.590, 374.783 188.984, 374.008 188.505 C 373.409 188.135, 373.185 186.993, 373.510 185.967 C 373.877 184.811, 373.333 183.333, 372.077 182.077 C 370.962 180.962, 369.766 178.914, 369.417 177.525 C 369.068 176.136, 368.212 175, 367.514 175 C 366.816 175, 365.667 174.304, 364.961 173.453 C 364.255 172.602, 361.284 170.774, 358.358 169.390 C 355.433 168.006, 352.779 166.452, 352.461 165.937 C 351.686 164.683, 351.063 164.768, 347.252 166.647 M 339.128 182.272 C 338.507 182.893, 338 183.960, 338 184.645 C 338 185.330, 336.762 186.487, 335.250 187.215 C 333.673 187.974, 332.474 189.384, 332.438 190.519 C 332.404 191.609, 332.090 193.175, 331.739 194 C 330.765 196.289, 331.381 201.781, 332.766 203.166 C 333.445 203.845, 334 205.432, 334 206.694 C 334 210.242, 340.778 214.617, 347.595 215.469 C 352.698 216.106, 353.455 215.944, 355.856 213.699 C 357.310 212.340, 359.909 210.518, 361.631 209.650 C 364.233 208.338, 364.878 207.300, 365.447 203.502 C 366.479 196.626, 362.786 186.405, 358.179 183.383 C 355.276 181.479, 340.767 180.633, 339.128 182.272 M 348 183.975 C 346.625 184.402, 344.520 184.541, 343.322 184.285 C 341.662 183.930, 340.765 184.554, 339.547 186.910 C 338.668 188.609, 337.601 190, 337.175 190 C 336.113 190, 334.135 196.044, 334.388 198.518 C 334.502 199.627, 335.012 201.202, 335.522 202.018 C 336.033 202.833, 336.310 204.352, 336.138 205.393 C 335.758 207.700, 340.596 211.913, 343.685 211.964 C 344.887 211.984, 347.087 212.463, 348.575 213.029 C 350.666 213.824, 351.760 213.708, 353.391 212.518 C 354.551 211.671, 357.124 209.893, 359.110 208.565 C 363.407 205.693, 364.559 201.657, 362.806 195.620 C 361.192 190.062, 357.538 185.383, 353.791 184.077 C 352.092 183.485, 350.656 183.045, 350.601 183.100 C 350.545 183.155, 349.375 183.548, 348 183.975 M 266.333 211.574 C 265.927 212.632, 264.987 212.963, 263.469 212.582 C 261.934 212.196, 261.010 212.533, 260.589 213.629 C 260.138 214.805, 259.189 215.088, 257.100 214.670 C 254.671 214.184, 253.524 214.794, 249.616 218.647 C 247.077 221.150, 245 223.805, 245 224.548 C 245 225.291, 243.578 227.228, 241.839 228.853 C 239.086 231.426, 238.637 232.575, 238.353 237.773 C 238.064 243.080, 238.358 244.194, 241.014 247.861 C 242.656 250.128, 244 252.386, 244 252.878 C 244 255.201, 250.807 263.973, 253.500 265.122 C 255.150 265.826, 258.677 267.673, 261.338 269.227 C 265.757 271.807, 267.043 272.055, 276.191 272.087 C 283.903 272.115, 286.604 271.763, 287.932 270.561 C 288.881 269.703, 290.414 269, 291.338 269 C 292.262 269, 294.442 267.639, 296.183 265.975 C 297.924 264.312, 300.507 262.699, 301.924 262.392 C 303.341 262.084, 304.998 261.684, 305.607 261.503 C 307.189 261.031, 306.284 241.617, 304.424 236.131 C 302.253 229.726, 301.409 228.414, 292.874 218.165 C 292.262 217.430, 290.836 217.071, 289.705 217.367 C 288.573 217.663, 286.489 217.306, 285.074 216.574 C 279.194 213.534, 277.138 212.797, 276.186 213.385 C 274.711 214.297, 272 213.006, 272 211.393 C 272 209.453, 267.087 209.610, 266.333 211.574 M 261.853 216.464 C 261.497 216.829, 259.808 217.168, 258.099 217.216 C 254.858 217.308, 249.371 221.736, 246.809 226.327 C 240.701 237.270, 240.524 237.816, 242.406 239.897 C 243.547 241.157, 243.945 242.598, 243.521 243.933 C 243.088 245.297, 243.572 246.912, 244.931 248.640 C 246.069 250.086, 247 251.817, 247 252.485 C 247 254.638, 252.573 261.455, 255.581 262.981 C 257.187 263.796, 260.164 265.528, 262.198 266.830 C 265.152 268.721, 267.466 269.245, 273.698 269.435 C 277.989 269.565, 282.175 269.306, 283 268.859 C 283.825 268.412, 286.385 267.576, 288.690 267.001 C 291.296 266.351, 293.104 265.248, 293.473 264.085 C 293.799 263.057, 295.449 261.642, 297.140 260.942 C 299.282 260.055, 300.787 258.331, 302.106 255.252 C 304.492 249.687, 304.491 246.882, 302.100 242.196 C 301.055 240.148, 300.200 236.750, 300.200 234.645 C 300.200 230.035, 297.329 226.660, 290.298 223.007 C 287.659 221.636, 284.725 219.890, 283.777 219.127 C 282.661 218.228, 280.938 217.962, 278.884 218.373 C 277.140 218.722, 275.186 218.569, 274.541 218.034 C 273.093 216.833, 262.742 215.552, 261.853 216.464 M 208.648 217.760 C 208.227 218.442, 207.009 219, 205.941 219 C 204.873 219, 204 219.395, 204 219.879 C 204 220.362, 202.683 221.303, 201.072 221.970 C 199.462 222.637, 197.376 224.032, 196.436 225.071 C 194.825 226.851, 194.825 226.996, 196.440 227.616 C 198.679 228.475, 208.442 225.138, 209.679 223.091 C 210.207 222.216, 210.364 220.380, 210.027 219.010 C 209.613 217.326, 209.167 216.921, 208.648 217.760 M 261.265 224.381 C 260.885 224.995, 260.558 226.383, 260.537 227.464 C 260.517 228.546, 259.600 229.897, 258.500 230.466 C 254.159 232.712, 254.129 232.780, 255.493 237.310 C 256.225 239.744, 256.435 242.259, 255.973 243.083 C 254.541 245.643, 257.243 252.108, 260.698 254.389 C 262.457 255.550, 264.106 257.301, 264.363 258.280 C 264.713 259.621, 265.777 260.037, 268.664 259.966 C 270.774 259.913, 274.860 260.182, 277.745 260.562 C 283.924 261.377, 286.309 260.079, 285.386 256.403 C 284.964 254.720, 285.545 253.141, 287.396 250.941 C 290.694 247.022, 290.989 240.827, 288 238.268 C 286.900 237.326, 286 235.929, 286 235.163 C 286 233.327, 279.119 227.068, 276.332 226.368 C 275.129 226.067, 273.915 225.222, 273.635 224.491 C 273 222.836, 262.279 222.740, 261.265 224.381 M 205.599 233.983 C 198.451 241.270, 196.627 244.435, 198.048 247.090 C 199.368 249.557, 202.638 249.545, 203.964 247.068 C 204.533 246.005, 205.877 244.856, 206.952 244.515 C 208.027 244.174, 210.552 241.654, 212.562 238.916 C 215.946 234.306, 216.125 233.717, 214.987 230.969 C 214.311 229.336, 213.242 228, 212.613 228 C 211.983 228, 208.827 230.692, 205.599 233.983 M 267 229.693 C 266.175 229.987, 263.595 231.152, 261.267 232.283 C 257.981 233.878, 257.278 234.631, 258.124 235.650 C 258.723 236.372, 259.020 238.883, 258.782 241.231 C 258.109 247.899, 259.510 251.540, 263.475 253.421 C 265.367 254.319, 267.154 255.440, 267.446 255.913 C 268.378 257.420, 274.875 258.137, 277.050 256.973 C 278.598 256.145, 279.494 256.165, 280.564 257.053 C 281.718 258.011, 282 257.905, 282 256.517 C 282 255.567, 283.338 252.808, 284.973 250.385 C 288.119 245.724, 288.275 241.303, 285.379 238.900 C 284.621 238.270, 284 237.338, 284 236.828 C 284 236.318, 282.492 234.348, 280.649 232.450 C 277.790 229.506, 276.652 229.012, 272.899 229.079 C 270.480 229.122, 267.825 229.399, 267 229.693 M 208 235.500 C 206.810 237.425, 205.214 239, 204.454 239 C 203.693 239, 202.605 239.870, 202.035 240.934 C 200.628 243.565, 200.722 244, 202.699 244 C 204.729 244, 214.226 234.175, 213.434 232.894 C 212.297 231.054, 210.095 232.111, 208 235.500" stroke="none" fill="#e4e4e4" fill-rule="evenodd"/><path d="M 300 48.304 C 300 50.198, 286.974 51.069, 281.601 49.536 C 279.668 48.984, 278.914 49.053, 279.340 49.741 C 280.158 51.065, 276.746 50.835, 275.765 49.500 C 275.303 48.870, 275.025 48.938, 275.015 49.684 C 275.005 50.444, 274.017 50.665, 272.250 50.300 C 266.701 49.156, 259.295 49.914, 251 52.475 C 246.325 53.918, 241.938 55.152, 241.250 55.216 C 240.563 55.281, 240 55.735, 240 56.226 C 240 56.716, 239.559 56.846, 239.021 56.513 C 238.482 56.180, 237.020 56.473, 235.771 57.164 C 234.522 57.854, 232.892 58.295, 232.150 58.143 C 231.326 57.974, 231.088 58.333, 231.539 59.063 C 232.007 59.820, 231.772 60.091, 230.899 59.800 C 230.141 59.547, 228.696 60.389, 227.688 61.670 C 226.680 62.952, 225.213 64, 224.427 64 C 223.642 64, 223 64.477, 223 65.059 C 223 65.641, 222.662 65.914, 222.250 65.664 C 221.272 65.072, 218.934 67.601, 219.727 68.393 C 220.060 68.727, 219.398 69, 218.256 69 C 217.113 69, 214.968 70.438, 213.489 72.196 C 211.005 75.148, 205.184 79.129, 206.526 76.958 C 207.580 75.253, 206.168 75.940, 203.461 78.449 C 202.008 79.796, 201.082 81.323, 201.404 81.844 C 201.725 82.365, 201.324 83.046, 200.511 83.357 C 199.666 83.682, 199.288 84.587, 199.628 85.473 C 200.049 86.571, 199.775 86.851, 198.688 86.434 C 197.004 85.787, 194.585 89.199, 195.785 90.529 C 196.178 90.964, 195.998 91.034, 195.384 90.684 C 194.770 90.334, 193.462 90.937, 192.479 92.024 C 191.495 93.111, 190.085 94, 189.345 94 C 188.126 94, 187.626 95.435, 187.718 98.671 C 187.736 99.315, 187.132 99.604, 186.376 99.314 C 185.383 98.933, 185 99.687, 185 102.026 C 185 104.378, 184.037 106.259, 181.490 108.883 C 179.559 110.873, 178.097 112.757, 178.240 113.071 C 178.383 113.386, 177.708 114.434, 176.741 115.402 C 175.773 116.370, 175.237 117.575, 175.550 118.081 C 175.862 118.586, 175.694 119, 175.176 119 C 174.657 119, 173.998 119.900, 173.710 121 C 173.411 122.145, 173.682 123.007, 174.344 123.015 C 174.990 123.024, 174.839 123.458, 174 124 C 173.175 124.533, 172.833 124.976, 173.241 124.985 C 173.648 124.993, 172.636 127.187, 170.991 129.861 C 169.346 132.534, 168 135.432, 168 136.302 C 168 137.171, 167.511 138.184, 166.913 138.554 C 166.315 138.923, 166.042 140.053, 166.307 141.065 C 166.571 142.076, 166.273 143.078, 165.644 143.289 C 164.841 143.560, 164.923 144.187, 165.919 145.394 C 167.145 146.878, 167.145 147.071, 165.919 146.806 C 164.819 146.569, 164.537 147.682, 164.663 151.750 C 164.753 154.637, 164.400 157, 163.878 157 C 163.298 157, 163.318 157.727, 163.930 158.869 C 164.480 159.896, 164.678 160.988, 164.371 161.295 C 164.064 161.602, 163.664 168.974, 163.483 177.677 C 163.302 186.380, 162.951 194.400, 162.705 195.500 C 162.459 196.600, 162.704 198.063, 163.251 198.750 C 163.931 199.606, 163.872 200, 163.063 200 C 162.414 200, 162.110 200.369, 162.389 200.820 C 162.668 201.271, 163.104 202.734, 163.359 204.070 C 163.613 205.407, 164.135 207.288, 164.518 208.250 C 164.951 209.338, 164.755 210, 164 210 C 163.332 210, 163.045 210.674, 163.362 211.500 C 163.678 212.325, 163.486 213, 162.933 213 C 162.287 213, 162.315 213.720, 163.011 215.021 C 163.606 216.132, 163.781 217.546, 163.399 218.163 C 162.386 219.803, 162.074 239.073, 163.071 238.456 C 163.535 238.169, 163.283 239.154, 162.509 240.645 C 161.735 242.137, 161.392 243.825, 161.745 244.397 C 162.099 244.969, 162.415 247.553, 162.447 250.138 C 162.479 252.723, 162.842 255.175, 163.253 255.586 C 164.371 256.705, 164.154 259.213, 163 258.500 C 162.450 258.160, 161.936 258.471, 161.858 259.191 C 161.200 265.240, 161.322 267.584, 162.328 268.224 C 163.132 268.735, 163.151 268.974, 162.389 268.985 C 161.172 269.001, 161.720 273.709, 163.033 274.520 C 163.470 274.790, 163.621 276.809, 163.368 279.006 C 163.050 281.772, 163.292 283, 164.155 283 C 165 283, 165.073 283.327, 164.382 284.018 C 163.769 284.631, 163.630 287.119, 164.033 290.261 C 164.402 293.134, 164.572 296.838, 164.411 298.493 C 163.586 306.964, 163.058 309.348, 161.837 310.122 C 160.874 310.732, 160.843 310.974, 161.725 310.985 C 162.627 310.996, 162.693 311.678, 161.975 313.565 C 160.756 316.771, 160.709 321.702, 161.890 322.432 C 162.870 323.038, 164.595 343.509, 164.117 348.865 C 163.886 351.462, 164.124 352.047, 165.159 351.424 C 166.191 350.802, 166.253 350.948, 165.427 352.058 C 164.837 352.851, 164.271 354.916, 164.169 356.647 C 164.067 358.378, 163.321 361.381, 162.511 363.320 C 161.372 366.045, 161.317 366.959, 162.269 367.344 C 162.946 367.618, 163.028 367.878, 162.451 367.921 C 161.849 367.966, 161.575 369.489, 161.809 371.492 C 162.047 373.528, 162.641 374.722, 163.235 374.355 C 163.915 373.935, 163.931 374.301, 163.283 375.460 C 162.065 377.636, 162.897 387.248, 164.389 388.235 C 165.155 388.741, 165.095 388.974, 164.199 388.985 C 163.198 388.996, 163.005 390.909, 163.364 397.250 C 163.621 401.788, 163.898 405.500, 163.979 405.500 C 164.129 405.500, 164.210 406.613, 165.327 424 C 166.211 437.748, 167.127 508.743, 166.400 507.179 C 165.052 504.277, 163.275 510.779, 163.551 517.602 C 163.705 521.396, 163.910 524.500, 164.006 524.500 C 164.102 524.500, 164.374 527.425, 164.609 531 C 164.845 534.575, 165.316 538.175, 165.656 539 C 166.531 541.124, 166.530 544.333, 165.654 545.751 C 165.243 546.415, 165.340 547.767, 165.869 548.755 C 166.492 549.919, 166.475 551.187, 165.820 552.357 C 165.264 553.350, 165.035 555.026, 165.311 556.082 C 165.587 557.137, 165.517 558, 165.156 558 C 163.854 558, 163.631 577.822, 164.915 579.449 C 165.371 580.027, 165.587 583.313, 165.394 586.750 C 165.164 590.844, 165.423 593, 166.144 593 C 166.881 593, 166.834 593.496, 166 594.500 C 165.087 595.600, 165.067 596, 165.923 596 C 166.716 596, 166.880 597.123, 166.434 599.500 C 165.945 602.104, 166.126 603.004, 167.139 603.015 C 168.170 603.027, 168.204 603.219, 167.276 603.808 C 166.596 604.240, 165.972 607.013, 165.874 610.043 C 165.776 613.044, 165.380 615.725, 164.993 616 C 164.266 616.517, 165.640 631.343, 166.661 634 C 167.603 636.450, 167.745 666, 166.815 666 C 166.345 666, 166.165 667.125, 166.414 668.500 C 166.664 669.875, 166.508 671, 166.069 671 C 165.140 671, 165.617 684.269, 166.658 687.388 C 167.489 689.877, 167.167 694.432, 165.930 697.684 C 165.403 699.070, 165.440 701.027, 166.022 702.557 C 166.556 703.964, 166.596 704.869, 166.111 704.568 C 164.756 703.731, 164.079 707.679, 165.357 708.957 C 166.087 709.687, 166.134 710.333, 165.492 710.792 C 164.193 711.719, 163.752 716, 164.954 716 C 166.169 716, 165.425 719.783, 163.834 721.700 C 161.902 724.028, 161.671 727.340, 163.489 726.642 C 164.683 726.184, 165 726.908, 165 730.090 C 165 732.306, 165.354 733.900, 165.786 733.632 C 166.561 733.153, 166.970 735.260, 166.994 739.850 C 167 741.143, 167.341 742.718, 167.750 743.350 C 168.159 743.983, 168.569 746.300, 168.659 748.500 C 168.968 755.999, 170.956 760.735, 175.661 765.186 C 179.951 769.246, 182.664 769.916, 189.361 768.573 C 193.545 767.734, 196.164 766.501, 198.513 764.267 C 200.322 762.545, 202.144 761.443, 202.561 761.818 C 202.978 762.193, 203.038 761.718, 202.695 760.762 C 202.352 759.806, 202.452 759.131, 202.916 759.262 C 203.809 759.514, 207.211 756.117, 210.442 751.747 C 211.511 750.302, 212.748 749.344, 213.192 749.619 C 213.637 749.893, 214 749.416, 214 748.559 C 214 747.702, 214.450 747, 215 747 C 215.550 747, 216 746.298, 216 745.441 C 216 744.584, 216.450 744.160, 217 744.500 C 217.550 744.840, 218 744.710, 218 744.212 C 218 742.905, 221.553 739, 222.742 739 C 223.297 739, 224.026 737.620, 224.363 735.934 C 224.701 734.247, 225.385 733.120, 225.883 733.428 C 226.382 733.736, 227.048 733.316, 227.364 732.494 C 227.679 731.672, 228.626 731, 229.469 731 C 230.311 731, 231 730.374, 231 729.608 C 231 728.843, 232.165 727.924, 233.588 727.567 C 235.840 727.002, 236.003 726.707, 234.838 725.295 C 233.636 723.838, 233.729 723.795, 235.750 724.871 C 237.627 725.872, 238 725.816, 238 724.535 C 238 723.691, 238.498 723, 239.107 723 C 239.743 723, 239.933 722.268, 239.554 721.280 C 239.191 720.335, 239.197 719.863, 239.566 720.233 C 240.566 721.233, 242.568 718.856, 243.350 715.740 C 243.729 714.233, 244.485 713, 245.031 713 C 245.578 713, 247.540 710.637, 249.392 707.750 C 251.244 704.862, 256.413 698.807, 260.879 694.293 C 265.346 689.779, 269 685.772, 269 685.389 C 269 683.767, 292.949 658.083, 294.509 658.033 C 295.532 658, 298.097 654.511, 297.911 653.406 C 297.757 652.489, 315.924 635, 317.031 635 C 317.564 635, 318 634.523, 318 633.941 C 318 633.359, 317.437 633.220, 316.750 633.633 C 315.944 634.117, 316.001 633.767, 316.912 632.645 C 318.022 631.277, 318.499 631.182, 319.146 632.203 C 319.787 633.213, 319.973 633.167, 319.985 631.993 C 319.993 631.164, 321.462 629.139, 323.250 627.493 C 325.038 625.847, 326.545 623.938, 326.600 623.250 C 326.833 620.343, 327.052 619.914, 328.002 620.501 C 328.553 620.842, 329.400 620.078, 329.884 618.805 C 330.893 616.152, 340.284 606, 341.729 606 C 343.152 606, 346.112 602.445, 345.336 601.669 C 344.968 601.301, 345.267 601, 346 601 C 346.733 601, 347.071 600.738, 346.750 600.417 C 346.165 599.832, 347.940 597.800, 351.485 595 C 352.530 594.175, 353.075 594.015, 352.698 594.645 C 352.018 595.780, 354.649 597.517, 356.419 597.102 C 356.925 596.984, 356.757 597.588, 356.047 598.444 C 354.965 599.747, 355.028 600, 356.437 600 C 357.361 600, 357.840 600.450, 357.500 601 C 357.160 601.550, 357.835 602, 359 602 C 360.165 602, 360.893 602.364, 360.618 602.809 C 360.343 603.255, 361.441 604.712, 363.059 606.049 C 364.676 607.385, 366.012 608.933, 366.028 609.489 C 366.043 610.045, 367.393 611.812, 369.028 613.417 C 370.662 615.021, 372 616.708, 372 617.167 C 372 617.625, 372.675 618, 373.500 618 C 374.325 618, 375 618.450, 375 619 C 375 619.550, 375.702 620, 376.559 620 C 377.416 620, 377.850 620.434, 377.523 620.964 C 376.690 622.311, 380.826 626.226, 382.191 625.382 C 382.859 624.969, 383.030 625.143, 382.615 625.814 C 381.854 627.046, 387.027 633, 388.858 633 C 389.486 633, 390 633.702, 390 634.559 C 390 635.416, 390.450 635.840, 391 635.500 C 391.550 635.160, 392 635.406, 392 636.047 C 392 636.688, 393.125 638.097, 394.500 639.179 C 395.875 640.260, 397 641.787, 397 642.573 C 397 643.358, 397.675 644, 398.500 644 C 399.325 644, 400 644.416, 400 644.925 C 400 645.720, 403.704 650.130, 410.250 657.129 C 411.212 658.158, 412 659.450, 412 660 C 412 660.550, 412.563 661.026, 413.250 661.057 C 413.938 661.089, 416.300 663.275, 418.500 665.915 C 420.700 668.556, 430.488 679.762, 440.250 690.817 C 450.012 701.873, 458 711.197, 458 711.538 C 458 711.878, 459.688 713.893, 461.750 716.015 C 467.749 722.187, 471 726.018, 471 726.918 C 471 727.379, 471.670 728.311, 472.489 728.991 C 473.308 729.671, 473.731 730.626, 473.430 731.113 C 473.129 731.601, 473.359 732, 473.941 732 C 474.523 732, 475 732.627, 475 733.393 C 475 734.159, 475.722 735.063, 476.604 735.401 C 477.486 735.740, 477.975 736.622, 477.692 737.361 C 477.031 739.082, 480.708 742.282, 482.297 741.370 C 482.959 740.990, 483.217 740.997, 482.872 741.385 C 482.092 742.260, 488.829 749.357, 491.345 750.311 C 492.360 750.695, 493.423 751.903, 493.709 752.994 C 493.994 754.085, 494.626 754.731, 495.114 754.430 C 495.601 754.128, 496 754.528, 496 755.319 C 496 756.109, 496.686 757.324, 497.524 758.020 C 498.362 758.716, 498.815 759.518, 498.530 759.804 C 498.244 760.089, 499.715 761.993, 501.798 764.035 C 503.880 766.076, 505.415 768.254, 505.209 768.873 C 505.002 769.493, 505.546 770, 506.417 770 C 507.288 770, 508 770.707, 508 771.571 C 508 773.307, 510.468 776.199, 511.267 775.400 C 511.545 775.122, 512.705 776.081, 513.846 777.531 C 515.085 779.106, 516.401 779.870, 517.114 779.429 C 517.870 778.963, 518.046 779.116, 517.594 779.847 C 516.929 780.924, 521.419 783.556, 523.250 783.161 C 523.663 783.073, 524 783.509, 524 784.131 C 524 784.866, 525.232 785.062, 527.522 784.690 C 529.689 784.339, 530.813 784.493, 530.443 785.091 C 530.083 785.675, 531.214 785.913, 533.266 785.687 C 537.324 785.240, 539.252 784.217, 538.457 782.931 C 538.141 782.419, 538.490 782, 539.234 782 C 540.727 782, 544.500 771.968, 544.500 768 C 544.500 766.625, 544.050 765.128, 543.500 764.674 C 542.852 764.138, 542.937 763.670, 543.742 763.343 C 544.645 762.976, 544.704 762.315, 543.957 760.919 C 543.392 759.864, 543.307 759, 543.768 759 C 544.229 759, 544.598 751.609, 544.587 742.575 C 544.574 731.540, 544.228 726.352, 543.534 726.767 C 542.925 727.130, 542.956 726.791, 543.609 725.942 C 544.219 725.149, 544.655 721.575, 544.577 718 C 544.499 714.425, 544.741 710.038, 545.113 708.250 C 545.509 706.344, 545.386 705, 544.815 705 C 544.233 705, 544.135 703.692, 544.571 701.750 C 544.973 699.962, 545.244 698.050, 545.173 697.500 C 544.285 690.602, 544.262 688, 545.090 688 C 545.692 688, 545.731 687.324, 545.192 686.250 C 544.709 685.288, 544.620 683.375, 544.993 682 C 545.366 680.625, 545.307 678.487, 544.861 677.250 C 544.374 675.900, 544.440 675, 545.025 675 C 545.561 675, 546 674.523, 546 673.941 C 546 673.359, 545.632 673.109, 545.182 673.387 C 544.376 673.886, 544.605 663.617, 545.452 661.315 C 545.691 660.663, 545.350 659.911, 544.694 659.644 C 543.880 659.312, 543.936 659.133, 544.872 659.079 C 546.008 659.014, 546.019 658.728, 544.937 657.424 C 544.163 656.492, 544.011 655.572, 544.564 655.174 C 545.839 654.256, 545.810 645.680, 544.529 644.765 C 543.824 644.262, 543.825 644.026, 544.533 644.015 C 546.048 643.993, 546.233 634.766, 544.737 633.816 C 543.993 633.344, 543.932 633.025, 544.583 633.015 C 545.178 633.007, 545.553 631.988, 545.416 630.750 C 545.279 629.513, 545.090 628.500, 544.997 628.500 C 544.904 628.500, 544.721 627.038, 544.590 625.250 C 544.459 623.462, 544.610 622, 544.926 621.999 C 545.242 621.999, 545.552 617.285, 545.615 611.524 C 545.691 604.634, 545.381 601.264, 544.711 601.679 C 544.060 602.081, 544.008 601.801, 544.567 600.905 C 545.049 600.132, 545.532 596.350, 545.641 592.500 C 545.749 588.650, 546.073 584.487, 546.362 583.250 C 546.653 581.997, 546.413 581, 545.820 581 C 545.067 581, 545.067 580.624, 545.820 579.716 C 546.468 578.936, 546.539 577.872, 546 577 C 545.461 576.128, 545.532 575.064, 546.180 574.284 C 546.928 573.382, 546.929 573, 546.185 573 C 544.938 573, 544.966 569.016, 546.225 567.339 C 546.732 566.665, 546.694 565.929, 546.135 565.583 C 545.185 564.996, 545.614 557.433, 546.697 555.681 C 547.005 555.183, 546.636 554.384, 545.878 553.904 C 544.918 553.295, 544.871 553.026, 545.725 553.015 C 546.639 553.004, 546.693 552.322, 545.936 550.333 C 545.379 548.866, 545.277 547.404, 545.711 547.083 C 546.931 546.181, 547.121 544, 545.980 544 C 545.384 544, 545.219 542.859, 545.583 541.250 C 546.637 536.591, 546.573 517.553, 545.500 516.765 C 544.898 516.323, 545.046 516.025, 545.872 516.015 C 547.008 516.003, 547.020 515.728, 545.937 514.424 C 545.163 513.492, 545.011 512.572, 545.564 512.174 C 546.894 511.216, 546.925 501.648, 545.602 500.765 C 544.823 500.246, 544.848 500.026, 545.688 500.015 C 546.341 500.007, 546.808 499.100, 546.725 498 C 546.642 496.900, 546.220 496, 545.787 496 C 545.354 496, 545 495.523, 545 494.941 C 545 494.359, 545.509 494.197, 546.132 494.581 C 546.956 495.091, 547.100 493.190, 546.662 487.593 C 546.330 483.365, 545.814 479.508, 545.513 479.022 C 545.213 478.536, 545.425 477.856, 545.984 477.510 C 547.294 476.700, 547.304 472.306, 545.997 471.498 C 545.375 471.114, 545.337 470.238, 545.897 469.189 C 546.394 468.260, 546.679 466.081, 546.531 464.348 C 546.383 462.614, 546.604 460.640, 547.023 459.962 C 547.442 459.284, 547.152 457.216, 546.379 455.365 C 545.606 453.514, 545.387 452, 545.894 452 C 546.400 452, 546.828 449.413, 546.845 446.250 C 546.862 443.088, 547.194 439.196, 547.583 437.601 C 548.150 435.275, 548.015 434.869, 546.895 435.543 C 545.733 436.244, 545.717 436.116, 546.799 434.781 C 547.674 433.700, 547.755 432.966, 547.046 432.528 C 546.348 432.097, 546.320 431.270, 546.962 430.071 C 547.494 429.076, 547.646 427.980, 547.300 427.633 C 546.317 426.651, 546.039 422, 546.962 422 C 547.417 422, 547.724 420.875, 547.644 419.501 C 547.565 418.126, 547.223 417.001, 546.884 417.001 C 546.546 417, 546.614 415.111, 547.036 412.801 C 547.459 410.492, 547.589 407.230, 547.326 405.551 C 547.063 403.873, 546.893 401.938, 546.948 401.250 C 547.003 400.563, 547.048 399.100, 547.048 398 C 547.048 396.900, 547.069 395.212, 547.095 394.250 C 547.500 379.328, 547.402 373.198, 546.736 371.750 C 546.292 370.788, 546.283 370, 546.715 370 C 547.147 370, 547.511 366.625, 547.525 362.500 C 547.538 358.375, 547.146 355, 546.652 355 C 546.159 355, 546.217 354.438, 546.782 353.750 C 547.347 353.063, 547.722 350.363, 547.615 347.750 C 547.507 345.137, 547.791 343, 548.245 343 C 548.699 343, 548.589 342.100, 548 341 C 547.216 339.535, 547.240 339, 548.087 339 C 548.859 339, 548.925 338.583, 548.285 337.750 C 547.757 337.063, 547.404 334.831, 547.500 332.791 C 547.606 330.555, 547.281 329.326, 546.683 329.696 C 546.056 330.084, 546.020 329.793, 546.587 328.905 C 547.079 328.132, 547.486 325.250, 547.491 322.500 C 547.499 318.079, 547.761 317.463, 549.750 317.180 C 552.344 316.812, 552.303 316.928, 551.025 313.565 C 550.307 311.678, 550.373 310.996, 551.275 310.985 C 552.157 310.974, 552.126 310.732, 551.163 310.122 C 549.942 309.348, 549.414 306.964, 548.589 298.493 C 548.428 296.838, 548.598 293.134, 548.967 290.261 C 549.370 287.119, 549.231 284.631, 548.618 284.018 C 547.927 283.327, 548 283, 548.845 283 C 549.708 283, 549.950 281.772, 549.632 279.006 C 549.379 276.809, 549.530 274.790, 549.967 274.520 C 551.280 273.709, 551.828 269.001, 550.611 268.985 C 549.849 268.974, 549.868 268.735, 550.672 268.224 C 551.678 267.584, 551.800 265.240, 551.142 259.191 C 551.064 258.471, 550.550 258.160, 550 258.500 C 548.846 259.213, 548.629 256.705, 549.747 255.586 C 550.158 255.175, 550.521 252.723, 550.553 250.138 C 550.585 247.553, 550.901 244.969, 551.255 244.397 C 551.608 243.825, 551.265 242.137, 550.491 240.645 C 549.717 239.154, 549.465 238.169, 549.929 238.456 C 550.926 239.073, 550.614 219.803, 549.601 218.163 C 549.219 217.546, 549.394 216.132, 549.989 215.021 C 550.685 213.720, 550.713 213, 550.067 213 C 549.514 213, 549.322 212.325, 549.638 211.500 C 549.955 210.674, 549.668 210, 549 210 C 548.245 210, 548.049 209.338, 548.482 208.250 C 548.865 207.287, 549.387 205.407, 549.641 204.070 C 549.896 202.734, 550.332 201.271, 550.611 200.820 C 550.890 200.369, 550.586 200, 549.937 200 C 549.128 200, 549.069 199.606, 549.749 198.750 C 550.296 198.063, 550.541 196.600, 550.295 195.500 C 550.049 194.400, 549.698 186.380, 549.517 177.677 C 549.336 168.974, 548.936 161.602, 548.629 161.295 C 548.322 160.988, 548.520 159.896, 549.070 158.869 C 549.682 157.727, 549.702 157, 549.122 157 C 548.600 157, 548.247 154.637, 548.337 151.750 C 548.463 147.682, 548.181 146.569, 547.081 146.806 C 545.855 147.071, 545.855 146.878, 547.081 145.394 C 548.077 144.187, 548.159 143.560, 547.356 143.289 C 546.727 143.078, 546.429 142.076, 546.693 141.065 C 546.958 140.053, 546.685 138.923, 546.087 138.554 C 545.489 138.184, 545 137.171, 545 136.302 C 545 135.432, 543.654 132.534, 542.009 129.861 C 540.364 127.187, 539.352 124.993, 539.759 124.985 C 540.167 124.976, 539.825 124.533, 539 124 C 538.161 123.458, 538.010 123.024, 538.656 123.015 C 539.318 123.007, 539.589 122.145, 539.290 121 C 539.002 119.900, 538.343 119, 537.824 119 C 537.306 119, 537.138 118.586, 537.450 118.081 C 537.763 117.575, 537.420 116.562, 536.688 115.831 C 535.956 115.099, 535.389 114.161, 535.429 113.747 C 535.468 113.333, 533.813 111.256, 531.750 109.131 C 528.983 106.280, 528 104.417, 528 102.026 C 528 99.687, 527.617 98.933, 526.624 99.314 C 525.868 99.604, 525.264 99.315, 525.282 98.671 C 525.374 95.435, 524.874 94, 523.655 94 C 522.915 94, 521.505 93.111, 520.521 92.024 C 519.538 90.937, 518.230 90.334, 517.616 90.684 C 517.002 91.034, 516.822 90.964, 517.215 90.529 C 518.415 89.199, 515.996 85.787, 514.312 86.434 C 513.225 86.851, 512.951 86.571, 513.372 85.473 C 513.712 84.587, 513.334 83.682, 512.489 83.357 C 511.676 83.046, 511.275 82.365, 511.596 81.844 C 511.918 81.323, 510.992 79.796, 509.539 78.449 C 506.832 75.940, 505.420 75.253, 506.474 76.958 C 507.816 79.129, 501.995 75.148, 499.511 72.196 C 498.032 70.438, 495.936 69, 494.852 69 C 493.769 69, 493.086 68.663, 493.336 68.250 C 493.928 67.272, 491.399 64.934, 490.607 65.727 C 490.273 66.060, 490 65.808, 490 65.167 C 490 64.525, 489.358 64, 488.573 64 C 487.787 64, 486.320 62.952, 485.312 61.670 C 484.304 60.389, 482.859 59.547, 482.101 59.800 C 481.228 60.091, 480.993 59.820, 481.461 59.063 C 481.912 58.333, 481.674 57.974, 480.850 58.143 C 480.108 58.295, 478.478 57.854, 477.229 57.164 C 475.980 56.473, 474.531 56.172, 474.009 56.495 C 473.486 56.818, 472.778 55.965, 472.436 54.600 C 471.803 52.079, 467.196 50.143, 465.024 51.485 C 464.461 51.833, 464 51.754, 464 51.309 C 464 50.864, 461.863 50.466, 459.250 50.424 C 456.637 50.382, 452.475 50.130, 450 49.864 C 447.525 49.597, 443.829 49.681, 441.786 50.049 C 439.415 50.476, 437.907 50.317, 437.615 49.609 C 437.327 48.910, 437.129 48.975, 437.079 49.785 C 437.019 50.754, 436.513 50.810, 435.021 50.011 C 433.932 49.428, 431.794 49.270, 430.271 49.659 C 425.011 51.003, 413 50.061, 413 48.304 C 413 47.587, 412.550 47, 412 47 C 411.450 47, 411 47.404, 411 47.898 C 411 48.392, 409.087 48.703, 406.750 48.590 C 404.413 48.476, 401.488 48.736, 400.250 49.167 C 398.858 49.652, 398 49.554, 398 48.912 C 398 48.341, 397.212 47.972, 396.250 48.091 C 395.288 48.210, 393.637 47.936, 392.582 47.482 C 391.330 46.944, 389.698 47.211, 387.888 48.250 C 386.362 49.126, 384.185 49.600, 383.051 49.303 C 381.917 49.007, 380.322 49.318, 379.507 49.995 C 378.309 50.988, 377.906 50.918, 377.412 49.631 C 377.005 48.570, 376.248 48.290, 375.150 48.794 C 373.125 49.723, 370.887 49.690, 369.319 48.707 C 368.670 48.300, 367.826 48.473, 367.444 49.090 C 366.947 49.894, 366.523 49.846, 365.951 48.921 C 365.307 47.878, 364.811 47.906, 363.384 49.064 C 361.835 50.322, 361.726 50.314, 362.500 49 C 363.214 47.789, 363.106 47.724, 361.942 48.662 C 361.149 49.301, 359.375 49.832, 358 49.843 C 356.625 49.854, 354.302 50.075, 352.838 50.334 C 351.375 50.593, 348.961 50.173, 347.474 49.402 C 344.150 47.677, 343.673 47.652, 344.633 49.250 C 345.229 50.242, 345.071 50.247, 343.868 49.274 C 342.094 47.839, 338.002 48.394, 336.839 50.227 C 336.204 51.226, 336.027 51.231, 336.015 50.250 C 336.007 49.563, 335.523 49, 334.941 49 C 334.359 49, 334.159 49.449, 334.498 49.997 C 334.905 50.656, 334.218 50.653, 332.473 49.990 C 331.021 49.438, 329.460 49.216, 329.005 49.497 C 328.549 49.778, 326.863 49.254, 325.257 48.333 C 323.332 47.228, 321.683 46.938, 320.418 47.482 C 319.363 47.936, 317.712 48.210, 316.750 48.091 C 315.788 47.972, 315 48.256, 315 48.723 C 315 49.190, 314.100 49.571, 313 49.571 C 311.900 49.571, 311 49.296, 311 48.959 C 311 48.622, 308.975 48.460, 306.500 48.600 C 304.025 48.740, 302 48.437, 302 47.927 C 302 47.417, 301.550 47, 301 47 C 300.450 47, 300 47.587, 300 48.304 M 428.431 96 C 434.194 102.015, 442.338 120.287, 450.172 144.778 C 454.382 157.939, 457.774 164, 460.928 164 C 461.933 164, 463.340 164.705, 464.054 165.566 C 465.131 166.863, 465.066 167.618, 463.677 169.970 C 461.243 174.090, 461.531 174.868, 466.250 176.914 C 470.938 178.947, 472.389 181.432, 473.473 189.288 C 474.066 193.585, 474.437 194.137, 477.088 194.668 C 478.712 194.992, 480.286 195.654, 480.585 196.138 C 481.482 197.589, 479.971 201, 478.433 201 C 475.518 201, 477.130 203.665, 481.257 205.670 C 484.385 207.190, 486.115 208.941, 487.778 212.270 C 489.023 214.763, 490.649 217.035, 491.392 217.320 C 492.135 217.605, 493.049 219.059, 493.423 220.551 C 493.798 222.043, 495.093 224.069, 496.302 225.054 L 498.500 226.843 495.626 229.856 L 492.751 232.869 496.172 234.299 C 500.223 235.991, 505.140 241.470, 504.382 243.446 C 504.088 244.212, 504.593 245.976, 505.504 247.366 C 506.416 248.757, 507.182 250.256, 507.208 250.697 C 507.234 251.139, 507.482 252.091, 507.759 252.814 C 508.036 253.536, 507.766 255.219, 507.158 256.552 C 506.551 257.885, 506.340 259.722, 506.689 260.633 C 507.083 261.659, 506.606 262.815, 505.437 263.669 C 503.833 264.843, 503.739 265.353, 504.811 267.069 C 505.880 268.781, 505.751 269.541, 503.968 272.045 C 502.811 273.670, 501.389 275, 500.809 275 C 500.155 275, 500.227 275.569, 501 276.500 C 501.993 277.697, 501.993 278.303, 501 279.500 C 500.315 280.325, 499.121 281, 498.346 281 C 496.077 281, 495.608 278.091, 497.534 275.963 C 499.245 274.072, 499.233 274, 497.222 274 C 494.945 274, 493.585 276.755, 494.581 279.351 C 495.616 282.049, 491.914 282.756, 490.208 280.186 C 488.819 278.094, 488.675 278.079, 485.884 279.728 C 484.296 280.665, 482.764 282.167, 482.479 283.065 C 481.686 285.565, 477.123 287.347, 475.329 285.858 C 473.507 284.346, 463.926 283.906, 462.237 285.256 C 461.047 286.208, 451.997 284.208, 448.063 282.123 C 447.273 281.704, 444.133 281.752, 441.086 282.230 C 436.893 282.888, 435.297 282.783, 434.523 281.800 C 433.380 280.347, 431.679 280.030, 421.280 279.330 C 415.726 278.956, 413.541 279.208, 411.808 280.422 C 410.569 281.290, 408.488 282, 407.184 282 C 405.707 282, 404.628 282.707, 404.323 283.874 C 403.749 286.067, 398.346 290.332, 397.109 289.568 C 396.643 289.280, 394.650 290.609, 392.680 292.522 C 390.711 294.435, 388.093 296, 386.864 296 C 385.635 296, 383.581 296.984, 382.301 298.187 C 380.505 299.874, 379.702 300.102, 378.787 299.187 C 377.186 297.586, 374 297.679, 374 299.326 C 374 300.847, 369.872 305, 368.360 305 C 367.804 305, 366.292 306.125, 365 307.500 C 363.708 308.875, 361.611 310, 360.339 310 C 358.676 310, 357.645 310.912, 356.668 313.250 C 355.067 317.079, 350.734 319.837, 348.784 318.268 C 347.288 317.063, 341 317.785, 341 319.161 C 341 321.595, 335.576 325.002, 331.604 325.063 C 328.044 325.118, 327.808 325.250, 329.824 326.059 C 332.753 327.233, 332.346 330.376, 329.208 330.824 C 327.201 331.110, 327.011 331.544, 327.578 334.563 C 328.255 338.174, 328.188 338.241, 322.653 339.460 C 320.266 339.985, 319.900 340.466, 320.393 342.429 C 320.760 343.893, 320.422 345.235, 319.490 346.008 C 318.671 346.688, 318 348.101, 318 349.147 C 318 350.261, 316.954 351.447, 315.474 352.010 C 314.085 352.538, 312.645 353.764, 312.273 354.735 C 311.901 355.706, 310.563 358.025, 309.298 359.890 C 308.034 361.754, 307 364.016, 307 364.917 C 307 366.580, 304.603 369.097, 300.037 372.228 C 298.207 373.484, 297.587 374.716, 297.773 376.728 C 297.980 378.961, 297.261 380.039, 294.074 382.272 C 290.843 384.536, 290.061 385.728, 289.809 388.772 C 289.530 392.142, 289.223 392.500, 286.619 392.500 C 284.644 392.500, 283.501 393.135, 282.987 394.518 C 282.574 395.628, 280.853 398.016, 279.162 399.826 C 276.536 402.638, 275.787 402.956, 274.023 402.012 C 272.888 401.405, 271.475 401.206, 270.884 401.572 C 270.293 401.937, 268.698 401.641, 267.340 400.914 C 265.342 399.845, 264.719 399.836, 264.080 400.870 C 262.759 403.009, 256.655 401.854, 255.513 399.250 C 254.970 398.012, 254.206 397, 253.814 397 C 253.423 397, 251.889 395.875, 250.405 394.500 C 248.922 393.125, 247.341 392, 246.893 392 C 246.444 392, 245.598 390.219, 245.011 388.042 C 244.425 385.865, 243.508 383.814, 242.973 383.483 C 242.438 383.153, 242 381.832, 242 380.549 C 242 378.928, 241.276 378.035, 239.627 377.621 C 236.982 376.957, 235.266 373.536, 234.560 367.521 C 234.151 364.028, 232.562 361.727, 229.910 360.786 C 229.466 360.629, 228.968 358.371, 228.802 355.769 C 228.532 351.539, 228.182 350.921, 225.500 349.936 C 220.179 347.983, 219.505 347.354, 219.178 344.030 C 219 342.232, 217.988 339.830, 216.928 338.692 C 215.867 337.554, 215 335.655, 215 334.472 C 215 333.148, 214.039 331.883, 212.500 331.182 C 211.125 330.555, 210 329.406, 210 328.628 C 210 326.963, 203.382 324.087, 200.989 324.713 C 198.866 325.268, 198.859 325.325, 199.280 338.249 C 199.401 341.962, 199.136 344.999, 198.691 344.999 C 198.246 345, 198.166 345.459, 198.512 346.020 C 199.549 347.698, 199.891 361.949, 198.909 362.556 C 198.409 362.865, 198 363.568, 198 364.118 C 198 364.668, 198.348 364.903, 198.773 364.640 C 199.742 364.041, 199.738 372.102, 198.768 373.611 C 198.376 374.221, 198.380 375.046, 198.777 375.443 C 199.781 376.447, 199.815 385.004, 198.813 384.384 C 197.750 383.727, 197.787 384.311, 199.017 387.544 C 199.673 389.269, 199.701 391.423, 199.097 393.609 C 198.531 395.659, 198.525 397, 199.081 397 C 199.586 397, 200 397.477, 200 398.059 C 200 398.641, 199.480 398.797, 198.845 398.405 C 198.055 397.916, 197.967 398.134, 198.567 399.095 C 199.895 401.226, 200.116 404, 198.959 404 C 198.274 404, 198.255 404.608, 198.903 405.819 C 199.963 407.799, 199.882 409.799, 198.663 411.750 C 198.233 412.438, 198.262 413, 198.727 413 C 199.952 413, 199.777 426.362, 198.541 427.235 C 197.864 427.713, 197.934 427.975, 198.742 427.985 C 200.096 428.001, 199.955 432.646, 198.531 434.950 C 197.965 435.865, 198.068 436.076, 198.845 435.595 C 199.480 435.203, 200 435.359, 200 435.941 C 200 436.523, 199.523 437, 198.941 437 C 198.359 437, 198.212 437.533, 198.615 438.185 C 199.722 439.978, 199.804 458.319, 198.710 459.750 C 198.079 460.576, 198.139 461, 198.887 461 C 199.680 461, 199.878 463.625, 199.549 469.750 C 199.013 479.716, 199.027 478.526, 199.305 490.750 C 199.434 496.426, 199.125 500.006, 198.507 500.015 C 197.882 500.025, 197.904 500.309, 198.566 500.765 C 200.070 501.802, 200.158 514.996, 198.662 515.015 C 197.870 515.026, 197.838 515.265, 198.561 515.765 C 199.145 516.169, 199.623 517.625, 199.623 519 C 199.623 520.375, 199.145 521.831, 198.561 522.235 C 197.826 522.743, 197.842 522.974, 198.613 522.985 C 199.226 522.993, 199.663 524.013, 199.584 525.250 C 199.506 526.487, 199.850 527.787, 200.349 528.138 C 200.849 528.490, 200.882 529.382, 200.422 530.127 C 199.403 531.775, 199.211 558, 200.218 558 C 200.613 558, 200.569 558.992, 200.120 560.205 C 199.671 561.417, 199.663 564.007, 200.102 565.959 C 200.541 567.912, 200.573 571.083, 200.173 573.005 C 199.773 574.927, 199.548 583.025, 199.672 591 C 200.062 616.016, 200.049 620.437, 199.575 622.750 C 199.322 623.988, 199.426 625, 199.807 625 C 200.188 625, 200.500 626.125, 200.500 627.500 C 200.500 628.875, 200.202 630, 199.838 630 C 199.474 630, 199.371 631.237, 199.610 632.750 C 200.004 635.246, 200.081 643.626, 199.769 650 C 199.702 651.375, 199.960 653.737, 200.342 655.250 C 200.725 656.762, 200.644 658, 200.163 658 C 199.682 658, 199.385 659.688, 199.504 661.750 C 199.623 663.813, 199.820 665.500, 199.942 665.500 C 200.065 665.500, 200.368 666.738, 200.616 668.250 C 200.874 669.817, 200.609 671, 199.999 671 C 199.265 671, 199.243 671.585, 199.930 672.869 C 200.480 673.896, 200.608 675.059, 200.215 675.452 C 199.388 676.279, 199.234 682, 200.039 682 C 201.004 682, 200.530 687.478, 199.500 688.235 C 198.886 688.686, 198.996 688.975, 199.785 688.985 C 200.730 688.996, 200.805 689.495, 200.070 690.869 C 199.520 691.896, 199.294 692.961, 199.568 693.235 C 200.527 694.193, 200.526 706.991, 199.567 707.311 C 199.034 707.489, 199.146 707.972, 199.816 708.386 C 200.562 708.847, 202.345 707.786, 204.425 705.645 C 206.291 703.723, 208.019 702.352, 208.265 702.598 C 208.510 702.844, 209.789 701.463, 211.106 699.529 C 212.423 697.596, 213.838 696.011, 214.250 696.007 C 214.662 696.003, 215 695.537, 215 694.970 C 215 694.404, 217.250 691.630, 220 688.807 C 222.750 685.984, 225 682.847, 225 681.837 C 225 680.827, 225.675 680, 226.500 680 C 227.325 680, 228 679.501, 228 678.891 C 228 677.762, 229.211 676.289, 236.750 668.245 C 239.088 665.750, 241 663.299, 241 662.796 C 241 662.293, 241.353 662.100, 241.784 662.367 C 242.216 662.633, 243.453 661.742, 244.534 660.387 C 245.615 659.031, 247.504 656.758, 248.731 655.335 C 249.958 653.912, 250.683 652.297, 250.342 651.744 C 250.001 651.192, 250.342 650.947, 251.101 651.200 C 252.518 651.673, 256 648.042, 256 646.092 C 256 645.492, 256.645 645, 257.433 645 C 258.221 645, 259.125 644.212, 259.442 643.250 C 260.024 641.485, 266 634.240, 266 635.299 C 266 635.613, 268.485 633.424, 271.522 630.435 C 274.560 627.446, 277.485 625, 278.022 625 C 278.560 625, 279 624.355, 279 623.567 C 279 622.779, 279.900 621.849, 281 621.500 C 282.100 621.151, 283 620.221, 283 619.433 C 283 618.645, 283.385 618, 283.855 618 C 284.325 618, 285.977 615.996, 287.525 613.546 C 289.074 611.097, 290.783 609.366, 291.325 609.701 C 291.866 610.035, 292.026 609.851, 291.680 609.292 C 291.334 608.732, 292.615 606.852, 294.526 605.113 C 296.437 603.374, 298 601.543, 298 601.043 C 298 600.544, 298.900 599.849, 300 599.500 C 301.100 599.151, 302 598.146, 302 597.266 C 302 596.386, 302.256 595.922, 302.568 596.235 C 302.881 596.547, 304.568 595.227, 306.318 593.301 C 308.068 591.375, 310.209 589.023, 311.076 588.073 C 311.943 587.124, 312.942 585.594, 313.295 584.674 C 313.648 583.753, 314.626 583, 315.469 583 C 316.311 583, 317 582.311, 317 581.469 C 317 580.626, 317.675 579.678, 318.500 579.362 C 319.325 579.045, 320 578.384, 320 577.893 C 320 577.402, 320.788 576.174, 321.750 575.165 C 324.362 572.426, 326.532 568.941, 326.256 567.930 C 326.122 567.438, 327.131 566.754, 328.499 566.411 C 329.867 566.068, 330.738 565.385, 330.434 564.893 C 330.130 564.402, 330.569 564, 331.410 564 C 332.346 564, 332.718 563.428, 332.371 562.523 C 332.008 561.579, 332.741 560.620, 334.402 559.863 C 335.831 559.212, 337 558.076, 337 557.339 C 337 556.603, 337.610 556, 338.355 556 C 339.100 556, 340.900 554.563, 342.355 552.807 C 343.870 550.979, 345.007 550.231, 345.015 551.057 C 345.024 551.914, 345.329 552.094, 345.765 551.500 C 346.169 550.950, 347.592 549.884, 348.927 549.131 C 351.033 547.943, 351.508 547.974, 352.525 549.366 C 353.170 550.247, 353.991 550.676, 354.349 550.318 C 354.707 549.960, 355 550.218, 355 550.892 C 355 551.574, 355.520 551.797, 356.170 551.395 C 356.969 550.901, 357.126 551.229, 356.666 552.428 C 356.187 553.677, 356.568 554.336, 357.985 554.706 C 359.081 554.993, 359.731 555.626, 359.430 556.114 C 359.128 556.601, 359.385 557, 360 557 C 360.615 557, 360.881 557.384, 360.591 557.853 C 360.301 558.322, 361.625 560.007, 363.532 561.597 C 365.439 563.188, 367 564.887, 367 565.374 C 367 565.861, 370.152 569.464, 374.003 573.380 C 385.979 585.555, 387 586.687, 387 587.791 C 387 588.382, 387.912 589.155, 389.027 589.508 C 390.141 589.862, 391.817 591.355, 392.751 592.826 C 393.685 594.297, 395.239 596.221, 396.206 597.102 C 397.173 597.982, 397.648 599.019, 397.262 599.404 C 396.877 599.790, 397.335 599.809, 398.280 599.446 C 399.487 598.983, 400 599.289, 400 600.471 C 400 601.398, 401.754 603.893, 403.897 606.015 C 406.040 608.137, 407.503 610.198, 407.147 610.596 C 406.791 610.993, 407.288 611.036, 408.250 610.691 C 409.431 610.267, 410 610.564, 410 611.603 C 410 612.450, 410.675 613.818, 411.500 614.643 C 412.325 615.468, 413 615.778, 413 615.332 C 413 614.885, 414.125 615.734, 415.500 617.217 C 416.875 618.699, 418 620.218, 418 620.592 C 418 620.965, 419.097 622.288, 420.438 623.530 C 421.779 624.773, 422.581 626.086, 422.219 626.448 C 421.857 626.810, 422.279 626.830, 423.157 626.493 C 424.295 626.057, 424.941 626.628, 425.406 628.483 C 425.766 629.915, 426.834 631.371, 427.780 631.720 C 428.726 632.069, 429.725 632.661, 430 633.035 C 434.601 639.303, 438.117 643.218, 441.892 646.277 C 443.098 647.254, 443.814 648.491, 443.484 649.027 C 443.153 649.562, 443.426 650, 444.091 650 C 444.756 650, 447.213 652.025, 449.551 654.500 C 451.889 656.975, 453.601 659, 453.355 659 C 453.110 659, 454.034 660.125, 455.409 661.500 C 456.784 662.875, 458.187 664, 458.526 664 C 459.664 664, 461.912 666.755, 461.286 667.381 C 460.945 667.721, 461.143 668, 461.725 668 C 462.307 668, 463.066 669.125, 463.411 670.500 C 463.756 671.875, 464.705 673, 465.519 673 C 466.334 673, 467 673.450, 467 674 C 467 674.550, 467.723 675, 468.607 675 C 469.599 675, 470.001 675.554, 469.658 676.449 C 469.286 677.418, 469.582 677.714, 470.551 677.342 C 471.348 677.036, 472 677.280, 472 677.884 C 472 678.488, 473.283 680.224, 474.852 681.741 C 476.420 683.259, 477.508 685.063, 477.268 685.751 C 477 686.522, 477.403 686.783, 478.319 686.431 C 479.273 686.065, 480.453 686.959, 481.618 688.930 C 482.615 690.619, 483.965 692, 484.617 692 C 485.745 692, 489.988 698.216, 489.916 699.765 C 489.897 700.169, 490.917 700.744, 492.183 701.043 C 493.449 701.342, 494.987 702.596, 495.602 703.829 C 496.217 705.063, 498.133 707.333, 499.860 708.875 C 501.587 710.417, 503 712.201, 503 712.839 C 503 713.478, 503.381 714, 503.847 714 C 505.167 714, 508.556 717.254, 509.924 719.836 C 511.754 723.288, 512.410 721.761, 512.782 713.192 C 513.679 692.540, 513.489 681.921, 512.208 681.129 C 511.269 680.548, 511.084 678.717, 511.531 674.415 C 511.869 671.162, 512.225 665.464, 512.323 661.752 C 512.420 658.041, 512.826 655.004, 513.225 655.002 C 513.624 655.001, 513.508 653.837, 512.968 652.416 C 512.428 650.995, 512.240 649.420, 512.552 648.916 C 512.863 648.412, 512.725 648, 512.246 648 C 510.996 648, 510.642 637.860, 511.086 614.750 C 511.246 606.415, 511.706 601.995, 512.415 601.985 C 513.144 601.974, 513.163 601.729, 512.471 601.235 C 511.905 600.831, 511.374 596.675, 511.290 592 C 511.126 582.876, 510.630 578.828, 509.440 576.903 C 508.964 576.133, 509.111 575.950, 509.842 576.403 C 510.694 576.929, 510.730 576.420, 509.983 574.454 C 509.397 572.913, 509.249 568.789, 509.631 564.647 C 510.664 553.466, 510.221 541, 508.792 541 C 508.363 541, 508.240 539.313, 508.519 537.250 C 509.917 526.914, 510.285 523.263, 510.185 520.714 C 510.124 519.182, 510.396 518.125, 510.787 518.366 C 511.179 518.606, 511.548 517.498, 511.606 515.902 C 511.665 514.306, 511.389 513, 510.994 513 C 510.599 513, 510.408 511.789, 510.570 510.309 C 510.733 508.829, 510.394 506.736, 509.817 505.657 C 508.920 503.983, 509.031 503.798, 510.578 504.391 C 512.239 505.029, 512.260 504.939, 510.826 503.293 C 509.655 501.949, 509.341 499.748, 509.570 494.500 C 510.040 483.724, 510.868 475.023, 511.524 473.961 C 511.851 473.432, 511.707 473, 511.204 473 C 510.164 473, 510.409 462.765, 511.492 461.013 C 512.515 459.357, 512.768 448.117, 511.874 444 C 510.551 437.902, 510.220 427.180, 511.321 426.079 C 512.832 424.568, 513.232 406, 511.754 406 C 510.914 406, 510.900 405.700, 511.701 404.899 C 512.357 404.243, 512.506 402.728, 512.070 401.149 C 511.263 398.234, 511.291 387.045, 512.108 385.484 C 512.391 384.943, 512.549 379.100, 512.458 372.500 C 512.367 365.833, 512.734 359.937, 513.283 359.233 C 514.520 357.650, 513.464 346.566, 511.564 341.181 C 510.500 338.166, 510.446 336.931, 511.335 335.968 C 512.085 335.156, 512.106 334.927, 511.392 335.324 C 510.644 335.742, 510.306 334.329, 510.351 330.971 C 510.388 328.237, 510.661 326, 510.959 325.999 C 511.256 325.999, 511.596 323.861, 511.713 321.249 C 511.831 318.637, 512.162 314.104, 512.451 311.176 C 512.817 307.451, 512.508 304.949, 511.421 302.848 C 509.490 299.113, 509.079 295.258, 510.267 292 C 511.723 288.004, 512.183 285.794, 512.557 281 C 512.750 278.525, 513.107 274.934, 513.350 273.020 C 513.600 271.049, 513.219 268.723, 512.471 267.655 C 511.745 266.619, 511.377 265.182, 511.652 264.463 C 511.928 263.744, 511.673 262.257, 511.085 261.159 C 510.292 259.677, 510.336 259.012, 511.258 258.581 C 512.247 258.118, 512.247 257.882, 511.259 257.420 C 510.328 256.984, 510.424 256.433, 511.643 255.214 C 512.718 254.140, 512.882 253.461, 512.128 253.209 C 511.501 253, 511.249 252.406, 511.569 251.889 C 511.889 251.371, 512.159 246.347, 512.169 240.724 C 512.180 235.101, 512.651 229.938, 513.216 229.250 C 513.823 228.512, 513.855 228, 513.293 228 C 512.043 228, 512.212 223.711, 513.500 222.765 C 514.124 222.307, 514.042 222.025, 513.281 222.015 C 512.611 222.007, 512.321 221.328, 512.636 220.506 C 512.952 219.684, 513.657 219.288, 514.205 219.626 C 514.808 219.999, 514.781 219.459, 514.135 218.252 C 513.549 217.158, 513.367 215.966, 513.731 215.603 C 514.636 214.697, 514.324 200.333, 513.365 198.781 C 512.939 198.092, 512.736 195.947, 512.915 194.014 C 513.093 192.081, 513.354 188.925, 513.495 187 C 513.637 185.075, 513.845 183.500, 513.959 183.500 C 514.462 183.500, 514.914 177.846, 515.043 169.947 C 515.256 156.938, 512.905 150.054, 504.791 139.929 C 502.399 136.943, 496.636 129.159, 491.986 122.632 C 487.336 116.104, 481.417 108.863, 478.834 106.541 C 474.108 102.292, 464.545 98, 459.804 98 C 458.434 98, 454.655 97.035, 451.407 95.855 C 447.585 94.467, 441.896 93.497, 435.288 93.105 L 425.077 92.500 428.431 96 M 367.701 136.250 C 365.053 138.074, 363.100 140.158, 363.250 141 C 363.573 142.821, 369.409 143.584, 371.226 142.043 C 371.927 141.449, 373.545 140.103, 374.823 139.051 C 376.757 137.459, 376.960 136.794, 376.037 135.070 C 374.535 132.263, 373.218 132.450, 367.701 136.250 M 389 142.583 C 387.625 143.346, 385.727 143.977, 384.781 143.985 C 383.835 143.993, 383.267 144.562, 383.516 145.250 C 383.767 145.941, 382.523 147.171, 380.735 148 C 378.739 148.926, 377.378 150.361, 377.180 151.750 C 376.886 153.826, 377.247 154, 381.871 154 C 384.627 154, 387.175 153.526, 387.533 152.947 C 387.890 152.368, 388.696 152.065, 389.322 152.274 C 389.948 152.483, 391.590 151.607, 392.970 150.327 C 394.350 149.047, 396.272 148, 397.240 148 C 399.689 148, 399.436 146.345, 396.545 143.455 C 393.801 140.710, 392.621 140.574, 389 142.583 M 339.500 164.450 C 330.015 169.710, 328.233 171.158, 326.494 175.012 C 325.505 177.206, 324.315 179, 323.848 179 C 323.382 179, 323 180.260, 323 181.800 C 323 183.340, 322.621 185.028, 322.159 185.550 C 321.696 186.072, 320.301 189.591, 319.058 193.368 L 316.799 200.237 318.945 203.140 C 320.126 204.736, 320.799 206.517, 320.441 207.095 C 320.083 207.674, 320.785 209.206, 322 210.500 C 323.215 211.794, 323.935 213.296, 323.600 213.839 C 323.264 214.381, 326.344 218.268, 330.444 222.475 C 336.786 228.984, 338.181 229.974, 339.796 229.109 C 341.049 228.439, 342.030 228.430, 342.684 229.084 C 343.338 229.738, 344.656 229.701, 346.564 228.976 C 348.154 228.371, 351.489 227.993, 353.977 228.134 C 357.757 228.349, 358.452 228.113, 358.206 226.696 C 357.989 225.442, 358.628 225, 360.659 225 C 362.397 225, 364.624 223.818, 366.728 221.779 C 368.556 220.007, 371.052 218.545, 372.276 218.529 C 374.040 218.506, 374.564 217.837, 374.810 215.298 C 375.009 213.240, 375.781 211.887, 376.971 211.509 C 378.303 211.086, 379.049 209.458, 379.626 205.711 C 380.732 198.539, 380.722 198.463, 378.750 198.794 C 377.712 198.968, 377 198.459, 377 197.544 C 377 196.695, 377.675 196, 378.500 196 C 380.462 196, 380.410 194.585, 378.386 192.906 C 377.145 191.876, 376.903 190.464, 377.338 186.793 C 377.818 182.742, 377.608 181.861, 375.952 180.974 C 374.878 180.400, 374 179.365, 374 178.675 C 374 176.836, 366.631 169, 364.901 169 C 363.272 169, 356.729 165.850, 354.479 163.983 C 351.827 161.782, 343.862 162.030, 339.500 164.450 M 348 183.975 C 346.625 184.402, 344.520 184.541, 343.322 184.285 C 341.662 183.930, 340.765 184.554, 339.547 186.910 C 338.668 188.609, 337.601 190, 337.175 190 C 336.113 190, 334.135 196.044, 334.388 198.518 C 334.502 199.627, 335.012 201.202, 335.522 202.018 C 336.033 202.833, 336.310 204.352, 336.138 205.393 C 335.758 207.700, 340.596 211.913, 343.685 211.964 C 344.887 211.984, 347.087 212.463, 348.575 213.029 C 350.666 213.824, 351.760 213.708, 353.391 212.518 C 354.551 211.671, 357.124 209.893, 359.110 208.565 C 363.407 205.693, 364.559 201.657, 362.806 195.620 C 361.192 190.062, 357.538 185.383, 353.791 184.077 C 352.092 183.485, 350.656 183.045, 350.601 183.100 C 350.545 183.155, 349.375 183.548, 348 183.975 M 266.333 211.574 C 265.927 212.632, 264.987 212.963, 263.469 212.582 C 261.934 212.196, 261.010 212.533, 260.589 213.629 C 260.138 214.805, 259.189 215.088, 257.100 214.670 C 254.671 214.184, 253.524 214.794, 249.616 218.647 C 247.077 221.150, 245 223.805, 245 224.548 C 245 225.291, 243.578 227.228, 241.839 228.853 C 239.086 231.426, 238.637 232.575, 238.353 237.773 C 238.064 243.080, 238.358 244.194, 241.014 247.861 C 242.656 250.128, 244 252.386, 244 252.878 C 244 255.201, 250.807 263.973, 253.500 265.122 C 255.150 265.826, 258.677 267.673, 261.338 269.227 C 265.757 271.807, 267.043 272.055, 276.191 272.087 C 283.903 272.115, 286.604 271.763, 287.932 270.561 C 288.881 269.703, 290.414 269, 291.338 269 C 292.262 269, 294.442 267.639, 296.183 265.975 C 297.924 264.312, 300.507 262.699, 301.924 262.392 C 303.341 262.084, 304.998 261.684, 305.607 261.503 C 307.189 261.031, 306.284 241.617, 304.424 236.131 C 302.253 229.726, 301.409 228.414, 292.874 218.165 C 292.262 217.430, 290.836 217.071, 289.705 217.367 C 288.573 217.663, 286.489 217.306, 285.074 216.574 C 279.194 213.534, 277.138 212.797, 276.186 213.385 C 274.711 214.297, 272 213.006, 272 211.393 C 272 209.453, 267.087 209.610, 266.333 211.574 M 208.648 217.760 C 208.227 218.442, 207.009 219, 205.941 219 C 204.873 219, 204 219.395, 204 219.879 C 204 220.362, 202.683 221.303, 201.072 221.970 C 199.462 222.637, 197.376 224.032, 196.436 225.071 C 194.825 226.851, 194.825 226.996, 196.440 227.616 C 198.679 228.475, 208.442 225.138, 209.679 223.091 C 210.207 222.216, 210.364 220.380, 210.027 219.010 C 209.613 217.326, 209.167 216.921, 208.648 217.760 M 205.599 233.983 C 198.451 241.270, 196.627 244.435, 198.048 247.090 C 199.368 249.557, 202.638 249.545, 203.964 247.068 C 204.533 246.005, 205.877 244.856, 206.952 244.515 C 208.027 244.174, 210.552 241.654, 212.562 238.916 C 215.946 234.306, 216.125 233.717, 214.987 230.969 C 214.311 229.336, 213.242 228, 212.613 228 C 211.983 228, 208.827 230.692, 205.599 233.983 M 267 229.693 C 266.175 229.987, 263.595 231.152, 261.267 232.283 C 257.981 233.878, 257.278 234.631, 258.124 235.650 C 258.723 236.372, 259.020 238.883, 258.782 241.231 C 258.109 247.899, 259.510 251.540, 263.475 253.421 C 265.367 254.319, 267.154 255.440, 267.446 255.913 C 268.378 257.420, 274.875 258.137, 277.050 256.973 C 278.598 256.145, 279.494 256.165, 280.564 257.053 C 281.718 258.011, 282 257.905, 282 256.517 C 282 255.567, 283.338 252.808, 284.973 250.385 C 288.119 245.724, 288.275 241.303, 285.379 238.900 C 284.621 238.270, 284 237.338, 284 236.828 C 284 236.318, 282.492 234.348, 280.649 232.450 C 277.790 229.506, 276.652 229.012, 272.899 229.079 C 270.480 229.122, 267.825 229.399, 267 229.693" stroke="none" fill="#050505" fill-rule="evenodd"/></svg>